<?xml version="1.0" encoding="utf-8" standalone="no"?>
<!DOCTYPE svg PUBLIC "-//W3C//DTD SVG 1.1//EN"
  "http://www.w3.org/Graphics/SVG/1.1/DTD/svg11.dtd">
<svg xmlns:xlink="http://www.w3.org/1999/xlink" width="864pt" height="374.4pt" viewBox="0 0 864 374.4" xmlns="http://www.w3.org/2000/svg" version="1.1">
 <metadata>
  <rdf:RDF xmlns:dc="http://purl.org/dc/elements/1.1/" xmlns:cc="http://creativecommons.org/ns#" xmlns:rdf="http://www.w3.org/1999/02/22-rdf-syntax-ns#">
   <cc:Work>
    <dc:type rdf:resource="http://purl.org/dc/dcmitype/StillImage"/>
    <dc:date>2025-10-23T08:30:52.060203</dc:date>
    <dc:format>image/svg+xml</dc:format>
    <dc:creator>
     <cc:Agent>
      <dc:title>Matplotlib v3.7.2, https://matplotlib.org/</dc:title>
     </cc:Agent>
    </dc:creator>
   </cc:Work>
  </rdf:RDF>
 </metadata>
 <defs>
  <style type="text/css">*{stroke-linejoin: round; stroke-linecap: butt}</style>
 </defs>
 <g id="figure_1">
  <g id="patch_1">
   <path d="M 0 374.4 
L 864 374.4 
L 864 0 
L 0 0 
z
" style="fill: #ffffff"/>
  </g>
  <g id="axes_1">
   <g id="patch_2">
    <path d="M 64.28 321.64 
L 853.2 321.64 
L 853.2 10.8 
L 64.28 10.8 
z
" style="fill: #ffffff"/>
   </g>
   <g id="patch_3">
    <path d="M 72.01451 321.64 
L 94.272092 321.64 
L 94.272092 246.039691 
L 72.01451 246.039691 
z
" clip-path="url(#p7769e5ffbf)" style="fill: #add8e6; opacity: 0.6"/>
   </g>
   <g id="patch_4">
    <path d="M 99.836488 321.64 
L 122.09407 321.64 
L 122.09407 286.765895 
L 99.836488 286.765895 
z
" clip-path="url(#p7769e5ffbf)" style="fill: #add8e6; opacity: 0.6"/>
   </g>
   <g id="patch_5">
    <path d="M 127.658465 321.64 
L 149.916047 321.64 
L 149.916047 275.025007 
L 127.658465 275.025007 
z
" clip-path="url(#p7769e5ffbf)" style="fill: #add8e6; opacity: 0.6"/>
   </g>
   <g id="patch_6">
    <path d="M 155.480443 321.64 
L 177.738025 321.64 
L 177.738025 253.377746 
L 155.480443 253.377746 
z
" clip-path="url(#p7769e5ffbf)" style="fill: #add8e6; opacity: 0.6"/>
   </g>
   <g id="patch_7">
    <path d="M 183.302421 321.64 
L 205.560003 321.64 
L 205.560003 249.96555 
L 183.302421 249.96555 
z
" clip-path="url(#p7769e5ffbf)" style="fill: #add8e6; opacity: 0.6"/>
   </g>
   <g id="patch_8">
    <path d="M 211.124398 321.64 
L 233.381981 321.64 
L 233.381981 263.063978 
L 211.124398 263.063978 
z
" clip-path="url(#p7769e5ffbf)" style="fill: #add8e6; opacity: 0.6"/>
   </g>
   <g id="patch_9">
    <path d="M 238.946376 321.64 
L 261.203958 321.64 
L 261.203958 249.616992 
L 238.946376 249.616992 
z
" clip-path="url(#p7769e5ffbf)" style="fill: #add8e6; opacity: 0.6"/>
   </g>
   <g id="patch_10">
    <path d="M 266.768354 321.64 
L 289.025936 321.64 
L 289.025936 236.335113 
L 266.768354 236.335113 
z
" clip-path="url(#p7769e5ffbf)" style="fill: #add8e6; opacity: 0.6"/>
   </g>
   <g id="patch_11">
    <path d="M 294.590331 321.64 
L 316.847914 321.64 
L 316.847914 236.555255 
L 294.590331 236.555255 
z
" clip-path="url(#p7769e5ffbf)" style="fill: #add8e6; opacity: 0.6"/>
   </g>
   <g id="patch_12">
    <path d="M 322.412309 321.64 
L 344.669891 321.64 
L 344.669891 240.591185 
L 322.412309 240.591185 
z
" clip-path="url(#p7769e5ffbf)" style="fill: #add8e6; opacity: 0.6"/>
   </g>
   <g id="patch_13">
    <path d="M 350.234287 321.64 
L 372.491869 321.64 
L 372.491869 237.270715 
L 350.234287 237.270715 
z
" clip-path="url(#p7769e5ffbf)" style="fill: #add8e6; opacity: 0.6"/>
   </g>
   <g id="patch_14">
    <path d="M 378.056265 321.64 
L 400.313847 321.64 
L 400.313847 236.903813 
L 378.056265 236.903813 
z
" clip-path="url(#p7769e5ffbf)" style="fill: #add8e6; opacity: 0.6"/>
   </g>
   <g id="patch_15">
    <path d="M 405.878242 321.64 
L 428.135825 321.64 
L 428.135825 236.151662 
L 405.878242 236.151662 
z
" clip-path="url(#p7769e5ffbf)" style="fill: #add8e6; opacity: 0.6"/>
   </g>
   <g id="patch_16">
    <path d="M 433.70022 321.64 
L 455.957802 321.64 
L 455.957802 237.380786 
L 433.70022 237.380786 
z
" clip-path="url(#p7769e5ffbf)" style="fill: #add8e6; opacity: 0.6"/>
   </g>
   <g id="patch_17">
    <path d="M 461.522198 321.64 
L 483.77978 321.64 
L 483.77978 238.224662 
L 461.522198 238.224662 
z
" clip-path="url(#p7769e5ffbf)" style="fill: #add8e6; opacity: 0.6"/>
   </g>
   <g id="patch_18">
    <path d="M 489.344175 321.64 
L 511.601758 321.64 
L 511.601758 239.325371 
L 489.344175 239.325371 
z
" clip-path="url(#p7769e5ffbf)" style="fill: #add8e6; opacity: 0.6"/>
   </g>
   <g id="patch_19">
    <path d="M 517.166153 321.64 
L 539.423735 321.64 
L 539.423735 237.234025 
L 517.166153 237.234025 
z
" clip-path="url(#p7769e5ffbf)" style="fill: #add8e6; opacity: 0.6"/>
   </g>
   <g id="patch_20">
    <path d="M 544.988131 321.64 
L 567.245713 321.64 
L 567.245713 235.748069 
L 544.988131 235.748069 
z
" clip-path="url(#p7769e5ffbf)" style="fill: #add8e6; opacity: 0.6"/>
   </g>
   <g id="patch_21">
    <path d="M 572.810109 321.64 
L 595.067691 321.64 
L 595.067691 235.601308 
L 572.810109 235.601308 
z
" clip-path="url(#p7769e5ffbf)" style="fill: #add8e6; opacity: 0.6"/>
   </g>
   <g id="patch_22">
    <path d="M 600.632086 321.64 
L 622.889669 321.64 
L 622.889669 237.123954 
L 600.632086 237.123954 
z
" clip-path="url(#p7769e5ffbf)" style="fill: #add8e6; opacity: 0.6"/>
   </g>
   <g id="patch_23">
    <path d="M 628.454064 321.64 
L 650.711646 321.64 
L 650.711646 237.123954 
L 628.454064 237.123954 
z
" clip-path="url(#p7769e5ffbf)" style="fill: #add8e6; opacity: 0.6"/>
   </g>
   <g id="patch_24">
    <path d="M 656.276042 321.64 
L 678.533624 321.64 
L 678.533624 236.591945 
L 656.276042 236.591945 
z
" clip-path="url(#p7769e5ffbf)" style="fill: #add8e6; opacity: 0.6"/>
   </g>
   <g id="patch_25">
    <path d="M 684.098019 321.64 
L 706.355602 321.64 
L 706.355602 238.261353 
L 684.098019 238.261353 
z
" clip-path="url(#p7769e5ffbf)" style="fill: #add8e6; opacity: 0.6"/>
   </g>
   <g id="patch_26">
    <path d="M 711.919997 321.64 
L 734.177579 321.64 
L 734.177579 240.499459 
L 711.919997 240.499459 
z
" clip-path="url(#p7769e5ffbf)" style="fill: #add8e6; opacity: 0.6"/>
   </g>
   <g id="patch_27">
    <path d="M 739.741975 321.64 
L 761.999557 321.64 
L 761.999557 242.57246 
L 739.741975 242.57246 
z
" clip-path="url(#p7769e5ffbf)" style="fill: #add8e6; opacity: 0.6"/>
   </g>
   <g id="patch_28">
    <path d="M 767.563953 321.64 
L 789.821535 321.64 
L 789.821535 243.96669 
L 767.563953 243.96669 
z
" clip-path="url(#p7769e5ffbf)" style="fill: #add8e6; opacity: 0.6"/>
   </g>
   <g id="patch_29">
    <path d="M 795.38593 321.64 
L 817.643512 321.64 
L 817.643512 246.204797 
L 795.38593 246.204797 
z
" clip-path="url(#p7769e5ffbf)" style="fill: #add8e6; opacity: 0.6"/>
   </g>
   <g id="patch_30">
    <path d="M 823.207908 321.64 
L 845.46549 321.64 
L 845.46549 247.672408 
L 823.207908 247.672408 
z
" clip-path="url(#p7769e5ffbf)" style="fill: #add8e6; opacity: 0.6"/>
   </g>
   <g id="patch_31">
    <path d="M 72.01451 246.039691 
L 94.272092 246.039691 
L 94.272092 147.874863 
L 72.01451 147.874863 
z
" clip-path="url(#p7769e5ffbf)" style="fill: #cda4de; opacity: 0.6"/>
   </g>
   <g id="patch_32">
    <path d="M 99.836488 286.765895 
L 122.09407 286.765895 
L 122.09407 147.874863 
L 99.836488 147.874863 
z
" clip-path="url(#p7769e5ffbf)" style="fill: #cda4de; opacity: 0.6"/>
   </g>
   <g id="patch_33">
    <path d="M 127.658465 275.025007 
L 149.916047 275.025007 
L 149.916047 147.874863 
L 127.658465 147.874863 
z
" clip-path="url(#p7769e5ffbf)" style="fill: #cda4de; opacity: 0.6"/>
   </g>
   <g id="patch_34">
    <path d="M 155.480443 253.377746 
L 177.738025 253.377746 
L 177.738025 147.874863 
L 155.480443 147.874863 
z
" clip-path="url(#p7769e5ffbf)" style="fill: #cda4de; opacity: 0.6"/>
   </g>
   <g id="patch_35">
    <path d="M 183.302421 249.96555 
L 205.560003 249.96555 
L 205.560003 147.874863 
L 183.302421 147.874863 
z
" clip-path="url(#p7769e5ffbf)" style="fill: #cda4de; opacity: 0.6"/>
   </g>
   <g id="patch_36">
    <path d="M 211.124398 263.063978 
L 233.381981 263.063978 
L 233.381981 147.874863 
L 211.124398 147.874863 
z
" clip-path="url(#p7769e5ffbf)" style="fill: #cda4de; opacity: 0.6"/>
   </g>
   <g id="patch_37">
    <path d="M 238.946376 249.616992 
L 261.203958 249.616992 
L 261.203958 147.874863 
L 238.946376 147.874863 
z
" clip-path="url(#p7769e5ffbf)" style="fill: #cda4de; opacity: 0.6"/>
   </g>
   <g id="patch_38">
    <path d="M 266.768354 236.335113 
L 289.025936 236.335113 
L 289.025936 147.874863 
L 266.768354 147.874863 
z
" clip-path="url(#p7769e5ffbf)" style="fill: #cda4de; opacity: 0.6"/>
   </g>
   <g id="patch_39">
    <path d="M 294.590331 236.555255 
L 316.847914 236.555255 
L 316.847914 147.874863 
L 294.590331 147.874863 
z
" clip-path="url(#p7769e5ffbf)" style="fill: #cda4de; opacity: 0.6"/>
   </g>
   <g id="patch_40">
    <path d="M 322.412309 240.591185 
L 344.669891 240.591185 
L 344.669891 147.874863 
L 322.412309 147.874863 
z
" clip-path="url(#p7769e5ffbf)" style="fill: #cda4de; opacity: 0.6"/>
   </g>
   <g id="patch_41">
    <path d="M 350.234287 237.270715 
L 372.491869 237.270715 
L 372.491869 147.874863 
L 350.234287 147.874863 
z
" clip-path="url(#p7769e5ffbf)" style="fill: #cda4de; opacity: 0.6"/>
   </g>
   <g id="patch_42">
    <path d="M 378.056265 236.903813 
L 400.313847 236.903813 
L 400.313847 147.874863 
L 378.056265 147.874863 
z
" clip-path="url(#p7769e5ffbf)" style="fill: #cda4de; opacity: 0.6"/>
   </g>
   <g id="patch_43">
    <path d="M 405.878242 236.151662 
L 428.135825 236.151662 
L 428.135825 147.874863 
L 405.878242 147.874863 
z
" clip-path="url(#p7769e5ffbf)" style="fill: #cda4de; opacity: 0.6"/>
   </g>
   <g id="patch_44">
    <path d="M 433.70022 237.380786 
L 455.957802 237.380786 
L 455.957802 147.874863 
L 433.70022 147.874863 
z
" clip-path="url(#p7769e5ffbf)" style="fill: #cda4de; opacity: 0.6"/>
   </g>
   <g id="patch_45">
    <path d="M 461.522198 238.224662 
L 483.77978 238.224662 
L 483.77978 147.874863 
L 461.522198 147.874863 
z
" clip-path="url(#p7769e5ffbf)" style="fill: #cda4de; opacity: 0.6"/>
   </g>
   <g id="patch_46">
    <path d="M 489.344175 239.325371 
L 511.601758 239.325371 
L 511.601758 147.874863 
L 489.344175 147.874863 
z
" clip-path="url(#p7769e5ffbf)" style="fill: #cda4de; opacity: 0.6"/>
   </g>
   <g id="patch_47">
    <path d="M 517.166153 237.234025 
L 539.423735 237.234025 
L 539.423735 147.874863 
L 517.166153 147.874863 
z
" clip-path="url(#p7769e5ffbf)" style="fill: #cda4de; opacity: 0.6"/>
   </g>
   <g id="patch_48">
    <path d="M 544.988131 235.748069 
L 567.245713 235.748069 
L 567.245713 147.874863 
L 544.988131 147.874863 
z
" clip-path="url(#p7769e5ffbf)" style="fill: #cda4de; opacity: 0.6"/>
   </g>
   <g id="patch_49">
    <path d="M 572.810109 235.601308 
L 595.067691 235.601308 
L 595.067691 147.874863 
L 572.810109 147.874863 
z
" clip-path="url(#p7769e5ffbf)" style="fill: #cda4de; opacity: 0.6"/>
   </g>
   <g id="patch_50">
    <path d="M 600.632086 237.123954 
L 622.889669 237.123954 
L 622.889669 147.874863 
L 600.632086 147.874863 
z
" clip-path="url(#p7769e5ffbf)" style="fill: #cda4de; opacity: 0.6"/>
   </g>
   <g id="patch_51">
    <path d="M 628.454064 237.123954 
L 650.711646 237.123954 
L 650.711646 147.874863 
L 628.454064 147.874863 
z
" clip-path="url(#p7769e5ffbf)" style="fill: #cda4de; opacity: 0.6"/>
   </g>
   <g id="patch_52">
    <path d="M 656.276042 236.591945 
L 678.533624 236.591945 
L 678.533624 147.874863 
L 656.276042 147.874863 
z
" clip-path="url(#p7769e5ffbf)" style="fill: #cda4de; opacity: 0.6"/>
   </g>
   <g id="patch_53">
    <path d="M 684.098019 238.261353 
L 706.355602 238.261353 
L 706.355602 147.874863 
L 684.098019 147.874863 
z
" clip-path="url(#p7769e5ffbf)" style="fill: #cda4de; opacity: 0.6"/>
   </g>
   <g id="patch_54">
    <path d="M 711.919997 240.499459 
L 734.177579 240.499459 
L 734.177579 147.874863 
L 711.919997 147.874863 
z
" clip-path="url(#p7769e5ffbf)" style="fill: #cda4de; opacity: 0.6"/>
   </g>
   <g id="patch_55">
    <path d="M 739.741975 242.57246 
L 761.999557 242.57246 
L 761.999557 147.874863 
L 739.741975 147.874863 
z
" clip-path="url(#p7769e5ffbf)" style="fill: #cda4de; opacity: 0.6"/>
   </g>
   <g id="patch_56">
    <path d="M 767.563953 243.96669 
L 789.821535 243.96669 
L 789.821535 147.874863 
L 767.563953 147.874863 
z
" clip-path="url(#p7769e5ffbf)" style="fill: #cda4de; opacity: 0.6"/>
   </g>
   <g id="patch_57">
    <path d="M 795.38593 246.204797 
L 817.643512 246.204797 
L 817.643512 147.874863 
L 795.38593 147.874863 
z
" clip-path="url(#p7769e5ffbf)" style="fill: #cda4de; opacity: 0.6"/>
   </g>
   <g id="patch_58">
    <path d="M 823.207908 247.672408 
L 845.46549 247.672408 
L 845.46549 147.874863 
L 823.207908 147.874863 
z
" clip-path="url(#p7769e5ffbf)" style="fill: #cda4de; opacity: 0.6"/>
   </g>
   <g id="patch_59">
    <path d="M 72.01451 147.874863 
L 94.272092 147.874863 
L 94.272092 72.274554 
L 72.01451 72.274554 
z
" clip-path="url(#p7769e5ffbf)" style="fill: #ffb6c1; opacity: 0.6"/>
   </g>
   <g id="patch_60">
    <path d="M 99.836488 147.874863 
L 122.09407 147.874863 
L 122.09407 113.000758 
L 99.836488 113.000758 
z
" clip-path="url(#p7769e5ffbf)" style="fill: #ffb6c1; opacity: 0.6"/>
   </g>
   <g id="patch_61">
    <path d="M 127.658465 147.874863 
L 149.916047 147.874863 
L 149.916047 101.25987 
L 127.658465 101.25987 
z
" clip-path="url(#p7769e5ffbf)" style="fill: #ffb6c1; opacity: 0.6"/>
   </g>
   <g id="patch_62">
    <path d="M 155.480443 147.874863 
L 177.738025 147.874863 
L 177.738025 79.612609 
L 155.480443 79.612609 
z
" clip-path="url(#p7769e5ffbf)" style="fill: #ffb6c1; opacity: 0.6"/>
   </g>
   <g id="patch_63">
    <path d="M 183.302421 147.874863 
L 205.560003 147.874863 
L 205.560003 76.200413 
L 183.302421 76.200413 
z
" clip-path="url(#p7769e5ffbf)" style="fill: #ffb6c1; opacity: 0.6"/>
   </g>
   <g id="patch_64">
    <path d="M 211.124398 147.874863 
L 233.381981 147.874863 
L 233.381981 89.298841 
L 211.124398 89.298841 
z
" clip-path="url(#p7769e5ffbf)" style="fill: #ffb6c1; opacity: 0.6"/>
   </g>
   <g id="patch_65">
    <path d="M 238.946376 147.874863 
L 261.203958 147.874863 
L 261.203958 75.851856 
L 238.946376 75.851856 
z
" clip-path="url(#p7769e5ffbf)" style="fill: #ffb6c1; opacity: 0.6"/>
   </g>
   <g id="patch_66">
    <path d="M 266.768354 147.874863 
L 289.025936 147.874863 
L 289.025936 62.569976 
L 266.768354 62.569976 
z
" clip-path="url(#p7769e5ffbf)" style="fill: #ffb6c1; opacity: 0.6"/>
   </g>
   <g id="patch_67">
    <path d="M 294.590331 147.874863 
L 316.847914 147.874863 
L 316.847914 62.790118 
L 294.590331 62.790118 
z
" clip-path="url(#p7769e5ffbf)" style="fill: #ffb6c1; opacity: 0.6"/>
   </g>
   <g id="patch_68">
    <path d="M 322.412309 147.874863 
L 344.669891 147.874863 
L 344.669891 66.826048 
L 322.412309 66.826048 
z
" clip-path="url(#p7769e5ffbf)" style="fill: #ffb6c1; opacity: 0.6"/>
   </g>
   <g id="patch_69">
    <path d="M 350.234287 147.874863 
L 372.491869 147.874863 
L 372.491869 63.505578 
L 350.234287 63.505578 
z
" clip-path="url(#p7769e5ffbf)" style="fill: #ffb6c1; opacity: 0.6"/>
   </g>
   <g id="patch_70">
    <path d="M 378.056265 147.874863 
L 400.313847 147.874863 
L 400.313847 63.138676 
L 378.056265 63.138676 
z
" clip-path="url(#p7769e5ffbf)" style="fill: #ffb6c1; opacity: 0.6"/>
   </g>
   <g id="patch_71">
    <path d="M 405.878242 147.874863 
L 428.135825 147.874863 
L 428.135825 62.386525 
L 405.878242 62.386525 
z
" clip-path="url(#p7769e5ffbf)" style="fill: #ffb6c1; opacity: 0.6"/>
   </g>
   <g id="patch_72">
    <path d="M 433.70022 147.874863 
L 455.957802 147.874863 
L 455.957802 63.615649 
L 433.70022 63.615649 
z
" clip-path="url(#p7769e5ffbf)" style="fill: #ffb6c1; opacity: 0.6"/>
   </g>
   <g id="patch_73">
    <path d="M 461.522198 147.874863 
L 483.77978 147.874863 
L 483.77978 64.459525 
L 461.522198 64.459525 
z
" clip-path="url(#p7769e5ffbf)" style="fill: #ffb6c1; opacity: 0.6"/>
   </g>
   <g id="patch_74">
    <path d="M 489.344175 147.874863 
L 511.601758 147.874863 
L 511.601758 65.560234 
L 489.344175 65.560234 
z
" clip-path="url(#p7769e5ffbf)" style="fill: #ffb6c1; opacity: 0.6"/>
   </g>
   <g id="patch_75">
    <path d="M 517.166153 147.874863 
L 539.423735 147.874863 
L 539.423735 63.468888 
L 517.166153 63.468888 
z
" clip-path="url(#p7769e5ffbf)" style="fill: #ffb6c1; opacity: 0.6"/>
   </g>
   <g id="patch_76">
    <path d="M 544.988131 147.874863 
L 567.245713 147.874863 
L 567.245713 61.982932 
L 544.988131 61.982932 
z
" clip-path="url(#p7769e5ffbf)" style="fill: #ffb6c1; opacity: 0.6"/>
   </g>
   <g id="patch_77">
    <path d="M 572.810109 147.874863 
L 595.067691 147.874863 
L 595.067691 61.836171 
L 572.810109 61.836171 
z
" clip-path="url(#p7769e5ffbf)" style="fill: #ffb6c1; opacity: 0.6"/>
   </g>
   <g id="patch_78">
    <path d="M 600.632086 147.874863 
L 622.889669 147.874863 
L 622.889669 63.358817 
L 600.632086 63.358817 
z
" clip-path="url(#p7769e5ffbf)" style="fill: #ffb6c1; opacity: 0.6"/>
   </g>
   <g id="patch_79">
    <path d="M 628.454064 147.874863 
L 650.711646 147.874863 
L 650.711646 63.358817 
L 628.454064 63.358817 
z
" clip-path="url(#p7769e5ffbf)" style="fill: #ffb6c1; opacity: 0.6"/>
   </g>
   <g id="patch_80">
    <path d="M 656.276042 147.874863 
L 678.533624 147.874863 
L 678.533624 62.826808 
L 656.276042 62.826808 
z
" clip-path="url(#p7769e5ffbf)" style="fill: #ffb6c1; opacity: 0.6"/>
   </g>
   <g id="patch_81">
    <path d="M 684.098019 147.874863 
L 706.355602 147.874863 
L 706.355602 64.496216 
L 684.098019 64.496216 
z
" clip-path="url(#p7769e5ffbf)" style="fill: #ffb6c1; opacity: 0.6"/>
   </g>
   <g id="patch_82">
    <path d="M 711.919997 147.874863 
L 734.177579 147.874863 
L 734.177579 66.734322 
L 711.919997 66.734322 
z
" clip-path="url(#p7769e5ffbf)" style="fill: #ffb6c1; opacity: 0.6"/>
   </g>
   <g id="patch_83">
    <path d="M 739.741975 147.874863 
L 761.999557 147.874863 
L 761.999557 68.807323 
L 739.741975 68.807323 
z
" clip-path="url(#p7769e5ffbf)" style="fill: #ffb6c1; opacity: 0.6"/>
   </g>
   <g id="patch_84">
    <path d="M 767.563953 147.874863 
L 789.821535 147.874863 
L 789.821535 70.201553 
L 767.563953 70.201553 
z
" clip-path="url(#p7769e5ffbf)" style="fill: #ffb6c1; opacity: 0.6"/>
   </g>
   <g id="patch_85">
    <path d="M 795.38593 147.874863 
L 817.643512 147.874863 
L 817.643512 72.43966 
L 795.38593 72.43966 
z
" clip-path="url(#p7769e5ffbf)" style="fill: #ffb6c1; opacity: 0.6"/>
   </g>
   <g id="patch_86">
    <path d="M 823.207908 147.874863 
L 845.46549 147.874863 
L 845.46549 73.907271 
L 823.207908 73.907271 
z
" clip-path="url(#p7769e5ffbf)" style="fill: #ffb6c1; opacity: 0.6"/>
   </g>
   <g id="matplotlib.axis_1">
    <g id="xtick_1">
     <g id="line2d_1">
      <defs>
       <path id="m992ee72a7d" d="M 0 0 
L 0 3.5 
" style="stroke: #000000; stroke-width: 0.8"/>
      </defs>
      <g>
       <use xlink:href="#m992ee72a7d" x="166.609234" y="321.64" style="stroke: #000000; stroke-width: 0.8"/>
      </g>
     </g>
     <g id="text_1">
      <!-- 4 -->
      <g transform="translate(162.160484 340.0925) scale(0.16 -0.16)">
       <defs>
        <path id="ArialMT-34" d="M 2069 0 
L 2069 1097 
L 81 1097 
L 81 1613 
L 2172 4581 
L 2631 4581 
L 2631 1613 
L 3250 1613 
L 3250 1097 
L 2631 1097 
L 2631 0 
L 2069 0 
z
M 2069 1613 
L 2069 3678 
L 634 1613 
L 2069 1613 
z
" transform="scale(0.015625)"/>
       </defs>
       <use xlink:href="#ArialMT-34"/>
      </g>
     </g>
    </g>
    <g id="xtick_2">
     <g id="line2d_2">
      <g>
       <use xlink:href="#m992ee72a7d" x="277.897145" y="321.64" style="stroke: #000000; stroke-width: 0.8"/>
      </g>
     </g>
     <g id="text_2">
      <!-- 8 -->
      <g transform="translate(273.448395 340.0925) scale(0.16 -0.16)">
       <defs>
        <path id="ArialMT-38" d="M 1131 2484 
Q 781 2613 612 2850 
Q 444 3088 444 3419 
Q 444 3919 803 4259 
Q 1163 4600 1759 4600 
Q 2359 4600 2725 4251 
Q 3091 3903 3091 3403 
Q 3091 3084 2923 2848 
Q 2756 2613 2416 2484 
Q 2838 2347 3058 2040 
Q 3278 1734 3278 1309 
Q 3278 722 2862 322 
Q 2447 -78 1769 -78 
Q 1091 -78 675 323 
Q 259 725 259 1325 
Q 259 1772 486 2073 
Q 713 2375 1131 2484 
z
M 1019 3438 
Q 1019 3113 1228 2906 
Q 1438 2700 1772 2700 
Q 2097 2700 2305 2904 
Q 2513 3109 2513 3406 
Q 2513 3716 2298 3927 
Q 2084 4138 1766 4138 
Q 1444 4138 1231 3931 
Q 1019 3725 1019 3438 
z
M 838 1322 
Q 838 1081 952 856 
Q 1066 631 1291 507 
Q 1516 384 1775 384 
Q 2178 384 2440 643 
Q 2703 903 2703 1303 
Q 2703 1709 2433 1975 
Q 2163 2241 1756 2241 
Q 1359 2241 1098 1978 
Q 838 1716 838 1322 
z
" transform="scale(0.015625)"/>
       </defs>
       <use xlink:href="#ArialMT-38"/>
      </g>
     </g>
    </g>
    <g id="xtick_3">
     <g id="line2d_3">
      <g>
       <use xlink:href="#m992ee72a7d" x="389.185056" y="321.64" style="stroke: #000000; stroke-width: 0.8"/>
      </g>
     </g>
     <g id="text_3">
      <!-- 12 -->
      <g transform="translate(380.287556 340.0925) scale(0.16 -0.16)">
       <defs>
        <path id="ArialMT-31" d="M 2384 0 
L 1822 0 
L 1822 3584 
Q 1619 3391 1289 3197 
Q 959 3003 697 2906 
L 697 3450 
Q 1169 3672 1522 3987 
Q 1875 4303 2022 4600 
L 2384 4600 
L 2384 0 
z
" transform="scale(0.015625)"/>
        <path id="ArialMT-32" d="M 3222 541 
L 3222 0 
L 194 0 
Q 188 203 259 391 
Q 375 700 629 1000 
Q 884 1300 1366 1694 
Q 2113 2306 2375 2664 
Q 2638 3022 2638 3341 
Q 2638 3675 2398 3904 
Q 2159 4134 1775 4134 
Q 1369 4134 1125 3890 
Q 881 3647 878 3216 
L 300 3275 
Q 359 3922 746 4261 
Q 1134 4600 1788 4600 
Q 2447 4600 2831 4234 
Q 3216 3869 3216 3328 
Q 3216 3053 3103 2787 
Q 2991 2522 2730 2228 
Q 2469 1934 1863 1422 
Q 1356 997 1212 845 
Q 1069 694 975 541 
L 3222 541 
z
" transform="scale(0.015625)"/>
       </defs>
       <use xlink:href="#ArialMT-31"/>
       <use xlink:href="#ArialMT-32" x="55.615234"/>
      </g>
     </g>
    </g>
    <g id="xtick_4">
     <g id="line2d_4">
      <g>
       <use xlink:href="#m992ee72a7d" x="500.472967" y="321.64" style="stroke: #000000; stroke-width: 0.8"/>
      </g>
     </g>
     <g id="text_4">
      <!-- 16 -->
      <g transform="translate(491.575467 340.0925) scale(0.16 -0.16)">
       <defs>
        <path id="ArialMT-36" d="M 3184 3459 
L 2625 3416 
Q 2550 3747 2413 3897 
Q 2184 4138 1850 4138 
Q 1581 4138 1378 3988 
Q 1113 3794 959 3422 
Q 806 3050 800 2363 
Q 1003 2672 1297 2822 
Q 1591 2972 1913 2972 
Q 2475 2972 2870 2558 
Q 3266 2144 3266 1488 
Q 3266 1056 3080 686 
Q 2894 316 2569 119 
Q 2244 -78 1831 -78 
Q 1128 -78 684 439 
Q 241 956 241 2144 
Q 241 3472 731 4075 
Q 1159 4600 1884 4600 
Q 2425 4600 2770 4297 
Q 3116 3994 3184 3459 
z
M 888 1484 
Q 888 1194 1011 928 
Q 1134 663 1356 523 
Q 1578 384 1822 384 
Q 2178 384 2434 671 
Q 2691 959 2691 1453 
Q 2691 1928 2437 2201 
Q 2184 2475 1800 2475 
Q 1419 2475 1153 2201 
Q 888 1928 888 1484 
z
" transform="scale(0.015625)"/>
       </defs>
       <use xlink:href="#ArialMT-31"/>
       <use xlink:href="#ArialMT-36" x="55.615234"/>
      </g>
     </g>
    </g>
    <g id="xtick_5">
     <g id="line2d_5">
      <g>
       <use xlink:href="#m992ee72a7d" x="611.760877" y="321.64" style="stroke: #000000; stroke-width: 0.8"/>
      </g>
     </g>
     <g id="text_5">
      <!-- 20 -->
      <g transform="translate(602.863377 340.0925) scale(0.16 -0.16)">
       <defs>
        <path id="ArialMT-30" d="M 266 2259 
Q 266 3072 433 3567 
Q 600 4063 929 4331 
Q 1259 4600 1759 4600 
Q 2128 4600 2406 4451 
Q 2684 4303 2865 4023 
Q 3047 3744 3150 3342 
Q 3253 2941 3253 2259 
Q 3253 1453 3087 958 
Q 2922 463 2592 192 
Q 2263 -78 1759 -78 
Q 1097 -78 719 397 
Q 266 969 266 2259 
z
M 844 2259 
Q 844 1131 1108 757 
Q 1372 384 1759 384 
Q 2147 384 2411 759 
Q 2675 1134 2675 2259 
Q 2675 3391 2411 3762 
Q 2147 4134 1753 4134 
Q 1366 4134 1134 3806 
Q 844 3388 844 2259 
z
" transform="scale(0.015625)"/>
       </defs>
       <use xlink:href="#ArialMT-32"/>
       <use xlink:href="#ArialMT-30" x="55.615234"/>
      </g>
     </g>
    </g>
    <g id="xtick_6">
     <g id="line2d_6">
      <g>
       <use xlink:href="#m992ee72a7d" x="723.048788" y="321.64" style="stroke: #000000; stroke-width: 0.8"/>
      </g>
     </g>
     <g id="text_6">
      <!-- 24 -->
      <g transform="translate(714.151288 340.0925) scale(0.16 -0.16)">
       <use xlink:href="#ArialMT-32"/>
       <use xlink:href="#ArialMT-34" x="55.615234"/>
      </g>
     </g>
    </g>
    <g id="xtick_7">
     <g id="line2d_7">
      <g>
       <use xlink:href="#m992ee72a7d" x="834.336699" y="321.64" style="stroke: #000000; stroke-width: 0.8"/>
      </g>
     </g>
     <g id="text_7">
      <!-- 28 -->
      <g transform="translate(825.439199 340.0925) scale(0.16 -0.16)">
       <use xlink:href="#ArialMT-32"/>
       <use xlink:href="#ArialMT-38" x="55.615234"/>
      </g>
     </g>
    </g>
    <g id="text_8">
     <!-- Layer Index -->
     <g transform="translate(414.326172 359.440781) scale(0.17 -0.17)">
      <defs>
       <path id="ArialMT-4c" d="M 469 0 
L 469 4581 
L 1075 4581 
L 1075 541 
L 3331 541 
L 3331 0 
L 469 0 
z
" transform="scale(0.015625)"/>
       <path id="ArialMT-61" d="M 2588 409 
Q 2275 144 1986 34 
Q 1697 -75 1366 -75 
Q 819 -75 525 192 
Q 231 459 231 875 
Q 231 1119 342 1320 
Q 453 1522 633 1644 
Q 813 1766 1038 1828 
Q 1203 1872 1538 1913 
Q 2219 1994 2541 2106 
Q 2544 2222 2544 2253 
Q 2544 2597 2384 2738 
Q 2169 2928 1744 2928 
Q 1347 2928 1158 2789 
Q 969 2650 878 2297 
L 328 2372 
Q 403 2725 575 2942 
Q 747 3159 1072 3276 
Q 1397 3394 1825 3394 
Q 2250 3394 2515 3294 
Q 2781 3194 2906 3042 
Q 3031 2891 3081 2659 
Q 3109 2516 3109 2141 
L 3109 1391 
Q 3109 606 3145 398 
Q 3181 191 3288 0 
L 2700 0 
Q 2613 175 2588 409 
z
M 2541 1666 
Q 2234 1541 1622 1453 
Q 1275 1403 1131 1340 
Q 988 1278 909 1158 
Q 831 1038 831 891 
Q 831 666 1001 516 
Q 1172 366 1500 366 
Q 1825 366 2078 508 
Q 2331 650 2450 897 
Q 2541 1088 2541 1459 
L 2541 1666 
z
" transform="scale(0.015625)"/>
       <path id="ArialMT-79" d="M 397 -1278 
L 334 -750 
Q 519 -800 656 -800 
Q 844 -800 956 -737 
Q 1069 -675 1141 -563 
Q 1194 -478 1313 -144 
Q 1328 -97 1363 -6 
L 103 3319 
L 709 3319 
L 1400 1397 
Q 1534 1031 1641 628 
Q 1738 1016 1872 1384 
L 2581 3319 
L 3144 3319 
L 1881 -56 
Q 1678 -603 1566 -809 
Q 1416 -1088 1222 -1217 
Q 1028 -1347 759 -1347 
Q 597 -1347 397 -1278 
z
" transform="scale(0.015625)"/>
       <path id="ArialMT-65" d="M 2694 1069 
L 3275 997 
Q 3138 488 2766 206 
Q 2394 -75 1816 -75 
Q 1088 -75 661 373 
Q 234 822 234 1631 
Q 234 2469 665 2931 
Q 1097 3394 1784 3394 
Q 2450 3394 2872 2941 
Q 3294 2488 3294 1666 
Q 3294 1616 3291 1516 
L 816 1516 
Q 847 969 1125 678 
Q 1403 388 1819 388 
Q 2128 388 2347 550 
Q 2566 713 2694 1069 
z
M 847 1978 
L 2700 1978 
Q 2663 2397 2488 2606 
Q 2219 2931 1791 2931 
Q 1403 2931 1139 2672 
Q 875 2413 847 1978 
z
" transform="scale(0.015625)"/>
       <path id="ArialMT-72" d="M 416 0 
L 416 3319 
L 922 3319 
L 922 2816 
Q 1116 3169 1280 3281 
Q 1444 3394 1641 3394 
Q 1925 3394 2219 3213 
L 2025 2691 
Q 1819 2813 1613 2813 
Q 1428 2813 1281 2702 
Q 1134 2591 1072 2394 
Q 978 2094 978 1738 
L 978 0 
L 416 0 
z
" transform="scale(0.015625)"/>
       <path id="ArialMT-20" transform="scale(0.015625)"/>
       <path id="ArialMT-49" d="M 597 0 
L 597 4581 
L 1203 4581 
L 1203 0 
L 597 0 
z
" transform="scale(0.015625)"/>
       <path id="ArialMT-6e" d="M 422 0 
L 422 3319 
L 928 3319 
L 928 2847 
Q 1294 3394 1984 3394 
Q 2284 3394 2536 3286 
Q 2788 3178 2913 3003 
Q 3038 2828 3088 2588 
Q 3119 2431 3119 2041 
L 3119 0 
L 2556 0 
L 2556 2019 
Q 2556 2363 2490 2533 
Q 2425 2703 2258 2804 
Q 2091 2906 1866 2906 
Q 1506 2906 1245 2678 
Q 984 2450 984 1813 
L 984 0 
L 422 0 
z
" transform="scale(0.015625)"/>
       <path id="ArialMT-64" d="M 2575 0 
L 2575 419 
Q 2259 -75 1647 -75 
Q 1250 -75 917 144 
Q 584 363 401 755 
Q 219 1147 219 1656 
Q 219 2153 384 2558 
Q 550 2963 881 3178 
Q 1213 3394 1622 3394 
Q 1922 3394 2156 3267 
Q 2391 3141 2538 2938 
L 2538 4581 
L 3097 4581 
L 3097 0 
L 2575 0 
z
M 797 1656 
Q 797 1019 1065 703 
Q 1334 388 1700 388 
Q 2069 388 2326 689 
Q 2584 991 2584 1609 
Q 2584 2291 2321 2609 
Q 2059 2928 1675 2928 
Q 1300 2928 1048 2622 
Q 797 2316 797 1656 
z
" transform="scale(0.015625)"/>
       <path id="ArialMT-78" d="M 47 0 
L 1259 1725 
L 138 3319 
L 841 3319 
L 1350 2541 
Q 1494 2319 1581 2169 
Q 1719 2375 1834 2534 
L 2394 3319 
L 3066 3319 
L 1919 1756 
L 3153 0 
L 2463 0 
L 1781 1031 
L 1600 1309 
L 728 0 
L 47 0 
z
" transform="scale(0.015625)"/>
      </defs>
      <use xlink:href="#ArialMT-4c"/>
      <use xlink:href="#ArialMT-61" x="55.615234"/>
      <use xlink:href="#ArialMT-79" x="111.230469"/>
      <use xlink:href="#ArialMT-65" x="161.230469"/>
      <use xlink:href="#ArialMT-72" x="216.845703"/>
      <use xlink:href="#ArialMT-20" x="250.146484"/>
      <use xlink:href="#ArialMT-49" x="277.929688"/>
      <use xlink:href="#ArialMT-6e" x="305.712891"/>
      <use xlink:href="#ArialMT-64" x="361.328125"/>
      <use xlink:href="#ArialMT-65" x="416.943359"/>
      <use xlink:href="#ArialMT-78" x="472.558594"/>
     </g>
    </g>
   </g>
   <g id="matplotlib.axis_2">
    <g id="ytick_1">
     <g id="line2d_8">
      <defs>
       <path id="mcab48da6bb" d="M 0 0 
L -3.5 0 
" style="stroke: #000000; stroke-width: 0.8"/>
      </defs>
      <g>
       <use xlink:href="#mcab48da6bb" x="64.28" y="248.259452" style="stroke: #000000; stroke-width: 0.8"/>
      </g>
     </g>
     <g id="text_9">
      <!-- 4k -->
      <g transform="translate(40.3825 253.985702) scale(0.16 -0.16)">
       <defs>
        <path id="ArialMT-6b" d="M 425 0 
L 425 4581 
L 988 4581 
L 988 1969 
L 2319 3319 
L 3047 3319 
L 1778 2088 
L 3175 0 
L 2481 0 
L 1384 1697 
L 988 1316 
L 988 0 
L 425 0 
z
" transform="scale(0.015625)"/>
       </defs>
       <use xlink:href="#ArialMT-34"/>
       <use xlink:href="#ArialMT-6b" x="55.615234"/>
      </g>
     </g>
    </g>
    <g id="ytick_2">
     <g id="line2d_9">
      <g>
       <use xlink:href="#mcab48da6bb" x="64.28" y="174.878905" style="stroke: #000000; stroke-width: 0.8"/>
      </g>
     </g>
     <g id="text_10">
      <!-- 8k -->
      <g transform="translate(40.3825 180.605155) scale(0.16 -0.16)">
       <use xlink:href="#ArialMT-38"/>
       <use xlink:href="#ArialMT-6b" x="55.615234"/>
      </g>
     </g>
    </g>
    <g id="ytick_3">
     <g id="line2d_10">
      <g>
       <use xlink:href="#mcab48da6bb" x="64.28" y="101.498357" style="stroke: #000000; stroke-width: 0.8"/>
      </g>
     </g>
     <g id="text_11">
      <!-- 12k -->
      <g transform="translate(31.485 107.224607) scale(0.16 -0.16)">
       <use xlink:href="#ArialMT-31"/>
       <use xlink:href="#ArialMT-32" x="55.615234"/>
       <use xlink:href="#ArialMT-6b" x="111.230469"/>
      </g>
     </g>
    </g>
    <g id="ytick_4">
     <g id="line2d_11">
      <g>
       <use xlink:href="#mcab48da6bb" x="64.28" y="28.117809" style="stroke: #000000; stroke-width: 0.8"/>
      </g>
     </g>
     <g id="text_12">
      <!-- 16k -->
      <g transform="translate(31.485 33.844059) scale(0.16 -0.16)">
       <use xlink:href="#ArialMT-31"/>
       <use xlink:href="#ArialMT-36" x="55.615234"/>
       <use xlink:href="#ArialMT-6b" x="111.230469"/>
      </g>
     </g>
    </g>
    <g id="text_13">
     <!-- Number of Neurons -->
     <g transform="translate(23.9075 244.749219) rotate(-90) scale(0.18 -0.18)">
      <defs>
       <path id="ArialMT-4e" d="M 488 0 
L 488 4581 
L 1109 4581 
L 3516 984 
L 3516 4581 
L 4097 4581 
L 4097 0 
L 3475 0 
L 1069 3600 
L 1069 0 
L 488 0 
z
" transform="scale(0.015625)"/>
       <path id="ArialMT-75" d="M 2597 0 
L 2597 488 
Q 2209 -75 1544 -75 
Q 1250 -75 995 37 
Q 741 150 617 320 
Q 494 491 444 738 
Q 409 903 409 1263 
L 409 3319 
L 972 3319 
L 972 1478 
Q 972 1038 1006 884 
Q 1059 663 1231 536 
Q 1403 409 1656 409 
Q 1909 409 2131 539 
Q 2353 669 2445 892 
Q 2538 1116 2538 1541 
L 2538 3319 
L 3100 3319 
L 3100 0 
L 2597 0 
z
" transform="scale(0.015625)"/>
       <path id="ArialMT-6d" d="M 422 0 
L 422 3319 
L 925 3319 
L 925 2853 
Q 1081 3097 1340 3245 
Q 1600 3394 1931 3394 
Q 2300 3394 2536 3241 
Q 2772 3088 2869 2813 
Q 3263 3394 3894 3394 
Q 4388 3394 4653 3120 
Q 4919 2847 4919 2278 
L 4919 0 
L 4359 0 
L 4359 2091 
Q 4359 2428 4304 2576 
Q 4250 2725 4106 2815 
Q 3963 2906 3769 2906 
Q 3419 2906 3187 2673 
Q 2956 2441 2956 1928 
L 2956 0 
L 2394 0 
L 2394 2156 
Q 2394 2531 2256 2718 
Q 2119 2906 1806 2906 
Q 1569 2906 1367 2781 
Q 1166 2656 1075 2415 
Q 984 2175 984 1722 
L 984 0 
L 422 0 
z
" transform="scale(0.015625)"/>
       <path id="ArialMT-62" d="M 941 0 
L 419 0 
L 419 4581 
L 981 4581 
L 981 2947 
Q 1338 3394 1891 3394 
Q 2197 3394 2470 3270 
Q 2744 3147 2920 2923 
Q 3097 2700 3197 2384 
Q 3297 2069 3297 1709 
Q 3297 856 2875 390 
Q 2453 -75 1863 -75 
Q 1275 -75 941 416 
L 941 0 
z
M 934 1684 
Q 934 1088 1097 822 
Q 1363 388 1816 388 
Q 2184 388 2453 708 
Q 2722 1028 2722 1663 
Q 2722 2313 2464 2622 
Q 2206 2931 1841 2931 
Q 1472 2931 1203 2611 
Q 934 2291 934 1684 
z
" transform="scale(0.015625)"/>
       <path id="ArialMT-6f" d="M 213 1659 
Q 213 2581 725 3025 
Q 1153 3394 1769 3394 
Q 2453 3394 2887 2945 
Q 3322 2497 3322 1706 
Q 3322 1066 3130 698 
Q 2938 331 2570 128 
Q 2203 -75 1769 -75 
Q 1072 -75 642 372 
Q 213 819 213 1659 
z
M 791 1659 
Q 791 1022 1069 705 
Q 1347 388 1769 388 
Q 2188 388 2466 706 
Q 2744 1025 2744 1678 
Q 2744 2294 2464 2611 
Q 2184 2928 1769 2928 
Q 1347 2928 1069 2612 
Q 791 2297 791 1659 
z
" transform="scale(0.015625)"/>
       <path id="ArialMT-66" d="M 556 0 
L 556 2881 
L 59 2881 
L 59 3319 
L 556 3319 
L 556 3672 
Q 556 4006 616 4169 
Q 697 4388 901 4523 
Q 1106 4659 1475 4659 
Q 1713 4659 2000 4603 
L 1916 4113 
Q 1741 4144 1584 4144 
Q 1328 4144 1222 4034 
Q 1116 3925 1116 3625 
L 1116 3319 
L 1763 3319 
L 1763 2881 
L 1116 2881 
L 1116 0 
L 556 0 
z
" transform="scale(0.015625)"/>
       <path id="ArialMT-73" d="M 197 991 
L 753 1078 
Q 800 744 1014 566 
Q 1228 388 1613 388 
Q 2000 388 2187 545 
Q 2375 703 2375 916 
Q 2375 1106 2209 1216 
Q 2094 1291 1634 1406 
Q 1016 1563 777 1677 
Q 538 1791 414 1992 
Q 291 2194 291 2438 
Q 291 2659 392 2848 
Q 494 3038 669 3163 
Q 800 3259 1026 3326 
Q 1253 3394 1513 3394 
Q 1903 3394 2198 3281 
Q 2494 3169 2634 2976 
Q 2775 2784 2828 2463 
L 2278 2388 
Q 2241 2644 2061 2787 
Q 1881 2931 1553 2931 
Q 1166 2931 1000 2803 
Q 834 2675 834 2503 
Q 834 2394 903 2306 
Q 972 2216 1119 2156 
Q 1203 2125 1616 2013 
Q 2213 1853 2448 1751 
Q 2684 1650 2818 1456 
Q 2953 1263 2953 975 
Q 2953 694 2789 445 
Q 2625 197 2315 61 
Q 2006 -75 1616 -75 
Q 969 -75 630 194 
Q 291 463 197 991 
z
" transform="scale(0.015625)"/>
      </defs>
      <use xlink:href="#ArialMT-4e"/>
      <use xlink:href="#ArialMT-75" x="72.216797"/>
      <use xlink:href="#ArialMT-6d" x="127.832031"/>
      <use xlink:href="#ArialMT-62" x="211.132812"/>
      <use xlink:href="#ArialMT-65" x="266.748047"/>
      <use xlink:href="#ArialMT-72" x="322.363281"/>
      <use xlink:href="#ArialMT-20" x="355.664062"/>
      <use xlink:href="#ArialMT-6f" x="383.447266"/>
      <use xlink:href="#ArialMT-66" x="439.0625"/>
      <use xlink:href="#ArialMT-20" x="466.845703"/>
      <use xlink:href="#ArialMT-4e" x="494.628906"/>
      <use xlink:href="#ArialMT-65" x="566.845703"/>
      <use xlink:href="#ArialMT-75" x="622.460938"/>
      <use xlink:href="#ArialMT-72" x="678.076172"/>
      <use xlink:href="#ArialMT-6f" x="711.376953"/>
      <use xlink:href="#ArialMT-6e" x="766.992188"/>
      <use xlink:href="#ArialMT-73" x="822.607422"/>
     </g>
    </g>
   </g>
   <g id="patch_87">
    <path d="M 64.28 321.64 
L 64.28 10.8 
" style="fill: none; stroke: #000000; stroke-width: 0.8; stroke-linejoin: miter; stroke-linecap: square"/>
   </g>
   <g id="patch_88">
    <path d="M 853.2 321.64 
L 853.2 10.8 
" style="fill: none; stroke: #000000; stroke-width: 0.8; stroke-linejoin: miter; stroke-linecap: square"/>
   </g>
   <g id="patch_89">
    <path d="M 64.28 321.64 
L 853.2 321.64 
" style="fill: none; stroke: #000000; stroke-width: 0.8; stroke-linejoin: miter; stroke-linecap: square"/>
   </g>
   <g id="patch_90">
    <path d="M 64.28 10.8 
L 853.2 10.8 
" style="fill: none; stroke: #000000; stroke-width: 0.8; stroke-linejoin: miter; stroke-linecap: square"/>
   </g>
   <g id="legend_1">
    <g id="patch_91">
     <path d="M 289.645 48.1008 
L 627.835 48.1008 
Q 631.035 48.1008 631.035 44.9008 
L 631.035 23.6633 
Q 631.035 20.4633 627.835 20.4633 
L 289.645 20.4633 
Q 286.445 20.4633 286.445 23.6633 
L 286.445 44.9008 
Q 286.445 48.1008 289.645 48.1008 
z
" style="fill: #ffffff; opacity: 0.9; stroke: #808080; stroke-width: 0.8; stroke-linejoin: miter"/>
    </g>
    <g id="patch_92">
     <path d="M 292.845 38.5208 
L 324.845 38.5208 
L 324.845 27.3208 
L 292.845 27.3208 
z
" style="fill: #add8e6; opacity: 0.6"/>
    </g>
    <g id="text_14">
     <!-- Und.  -->
     <g transform="translate(337.645 38.5208) scale(0.16 -0.16)">
      <defs>
       <path id="ArialMT-55" d="M 3500 4581 
L 4106 4581 
L 4106 1934 
Q 4106 1244 3950 837 
Q 3794 431 3386 176 
Q 2978 -78 2316 -78 
Q 1672 -78 1262 144 
Q 853 366 678 786 
Q 503 1206 503 1934 
L 503 4581 
L 1109 4581 
L 1109 1938 
Q 1109 1341 1220 1058 
Q 1331 775 1601 622 
Q 1872 469 2263 469 
Q 2931 469 3215 772 
Q 3500 1075 3500 1938 
L 3500 4581 
z
" transform="scale(0.015625)"/>
       <path id="ArialMT-2e" d="M 581 0 
L 581 641 
L 1222 641 
L 1222 0 
L 581 0 
z
" transform="scale(0.015625)"/>
      </defs>
      <use xlink:href="#ArialMT-55"/>
      <use xlink:href="#ArialMT-6e" x="72.216797"/>
      <use xlink:href="#ArialMT-64" x="127.832031"/>
      <use xlink:href="#ArialMT-2e" x="183.447266"/>
      <use xlink:href="#ArialMT-20" x="211.230469"/>
     </g>
    </g>
    <g id="patch_93">
     <path d="M 407.885 38.5208 
L 439.885 38.5208 
L 439.885 27.3208 
L 407.885 27.3208 
z
" style="fill: #cda4de; opacity: 0.6"/>
    </g>
    <g id="text_15">
     <!-- Overlap -->
     <g transform="translate(452.685 38.5208) scale(0.16 -0.16)">
      <defs>
       <path id="ArialMT-4f" d="M 309 2231 
Q 309 3372 921 4017 
Q 1534 4663 2503 4663 
Q 3138 4663 3647 4359 
Q 4156 4056 4423 3514 
Q 4691 2972 4691 2284 
Q 4691 1588 4409 1038 
Q 4128 488 3612 205 
Q 3097 -78 2500 -78 
Q 1853 -78 1343 234 
Q 834 547 571 1087 
Q 309 1628 309 2231 
z
M 934 2222 
Q 934 1394 1379 917 
Q 1825 441 2497 441 
Q 3181 441 3623 922 
Q 4066 1403 4066 2288 
Q 4066 2847 3877 3264 
Q 3688 3681 3323 3911 
Q 2959 4141 2506 4141 
Q 1863 4141 1398 3698 
Q 934 3256 934 2222 
z
" transform="scale(0.015625)"/>
       <path id="ArialMT-76" d="M 1344 0 
L 81 3319 
L 675 3319 
L 1388 1331 
Q 1503 1009 1600 663 
Q 1675 925 1809 1294 
L 2547 3319 
L 3125 3319 
L 1869 0 
L 1344 0 
z
" transform="scale(0.015625)"/>
       <path id="ArialMT-6c" d="M 409 0 
L 409 4581 
L 972 4581 
L 972 0 
L 409 0 
z
" transform="scale(0.015625)"/>
       <path id="ArialMT-70" d="M 422 -1272 
L 422 3319 
L 934 3319 
L 934 2888 
Q 1116 3141 1344 3267 
Q 1572 3394 1897 3394 
Q 2322 3394 2647 3175 
Q 2972 2956 3137 2557 
Q 3303 2159 3303 1684 
Q 3303 1175 3120 767 
Q 2938 359 2589 142 
Q 2241 -75 1856 -75 
Q 1575 -75 1351 44 
Q 1128 163 984 344 
L 984 -1272 
L 422 -1272 
z
M 931 1641 
Q 931 1000 1190 694 
Q 1450 388 1819 388 
Q 2194 388 2461 705 
Q 2728 1022 2728 1688 
Q 2728 2322 2467 2637 
Q 2206 2953 1844 2953 
Q 1484 2953 1207 2617 
Q 931 2281 931 1641 
z
" transform="scale(0.015625)"/>
      </defs>
      <use xlink:href="#ArialMT-4f"/>
      <use xlink:href="#ArialMT-76" x="77.783203"/>
      <use xlink:href="#ArialMT-65" x="127.783203"/>
      <use xlink:href="#ArialMT-72" x="183.398438"/>
      <use xlink:href="#ArialMT-6c" x="216.699219"/>
      <use xlink:href="#ArialMT-61" x="238.916016"/>
      <use xlink:href="#ArialMT-70" x="294.53125"/>
     </g>
    </g>
    <g id="patch_94">
     <path d="M 540.705 38.5208 
L 572.705 38.5208 
L 572.705 27.3208 
L 540.705 27.3208 
z
" style="fill: #ffb6c1; opacity: 0.6"/>
    </g>
    <g id="text_16">
     <!-- Gen.  -->
     <g transform="translate(585.505 38.5208) scale(0.16 -0.16)">
      <defs>
       <path id="ArialMT-47" d="M 2638 1797 
L 2638 2334 
L 4578 2338 
L 4578 638 
Q 4131 281 3656 101 
Q 3181 -78 2681 -78 
Q 2006 -78 1454 211 
Q 903 500 622 1047 
Q 341 1594 341 2269 
Q 341 2938 620 3517 
Q 900 4097 1425 4378 
Q 1950 4659 2634 4659 
Q 3131 4659 3532 4498 
Q 3934 4338 4162 4050 
Q 4391 3763 4509 3300 
L 3963 3150 
Q 3859 3500 3706 3700 
Q 3553 3900 3268 4020 
Q 2984 4141 2638 4141 
Q 2222 4141 1919 4014 
Q 1616 3888 1430 3681 
Q 1244 3475 1141 3228 
Q 966 2803 966 2306 
Q 966 1694 1177 1281 
Q 1388 869 1791 669 
Q 2194 469 2647 469 
Q 3041 469 3416 620 
Q 3791 772 3984 944 
L 3984 1797 
L 2638 1797 
z
" transform="scale(0.015625)"/>
      </defs>
      <use xlink:href="#ArialMT-47"/>
      <use xlink:href="#ArialMT-65" x="77.783203"/>
      <use xlink:href="#ArialMT-6e" x="133.398438"/>
      <use xlink:href="#ArialMT-2e" x="189.013672"/>
      <use xlink:href="#ArialMT-20" x="216.796875"/>
     </g>
    </g>
   </g>
  </g>
 </g>
 <defs>
  <clipPath id="p7769e5ffbf">
   <rect x="64.28" y="10.8" width="788.92" height="310.84"/>
  </clipPath>
 </defs>
</svg>
