<?xml version="1.0" encoding="utf-8" standalone="no"?>
<!DOCTYPE svg PUBLIC "-//W3C//DTD SVG 1.1//EN"
  "http://www.w3.org/Graphics/SVG/1.1/DTD/svg11.dtd">
<svg xmlns:xlink="http://www.w3.org/1999/xlink" width="756pt" height="396pt" viewBox="0 0 756 396" xmlns="http://www.w3.org/2000/svg" version="1.1">
 <metadata>
  <rdf:RDF xmlns:dc="http://purl.org/dc/elements/1.1/" xmlns:cc="http://creativecommons.org/ns#" xmlns:rdf="http://www.w3.org/1999/02/22-rdf-syntax-ns#">
   <cc:Work>
    <dc:type rdf:resource="http://purl.org/dc/dcmitype/StillImage"/>
    <dc:date>2025-10-23T08:32:20.229139</dc:date>
    <dc:format>image/svg+xml</dc:format>
    <dc:creator>
     <cc:Agent>
      <dc:title>Matplotlib v3.7.2, https://matplotlib.org/</dc:title>
     </cc:Agent>
    </dc:creator>
   </cc:Work>
  </rdf:RDF>
 </metadata>
 <defs>
  <style type="text/css">*{stroke-linejoin: round; stroke-linecap: butt}</style>
 </defs>
 <g id="figure_1">
  <g id="patch_1">
   <path d="M 0 396 
L 756 396 
L 756 0 
L 0 0 
z
" style="fill: #ffffff"/>
  </g>
  <g id="axes_1">
   <g id="patch_2">
    <path d="M 63.663365 354.368823 
L 752.99976 354.368823 
L 752.99976 3.00024 
L 63.663365 3.00024 
z
" style="fill: #ffffff"/>
   </g>
   <g id="matplotlib.axis_1">
    <g id="xtick_1">
     <g id="line2d_1">
      <path d="M 63.663365 354.368823 
L 63.663365 3.00024 
" clip-path="url(#p453731677a)" style="fill: none; stroke: #b0b0b0; stroke-opacity: 0.25; stroke-width: 0.8; stroke-linecap: square"/>
     </g>
     <g id="line2d_2">
      <defs>
       <path id="m2bbdd10619" d="M 0 0 
L 0 3.5 
" style="stroke: #000000; stroke-width: 0.8"/>
      </defs>
      <g>
       <use xlink:href="#m2bbdd10619" x="63.663365" y="354.368823" style="stroke: #000000; stroke-width: 0.8"/>
      </g>
     </g>
     <g id="text_1">
      <!-- 0 -->
      <g transform="translate(59.770709 371.38976) scale(0.14 -0.14)">
       <defs>
        <path id="ArialMT-30" d="M 266 2259 
Q 266 3072 433 3567 
Q 600 4063 929 4331 
Q 1259 4600 1759 4600 
Q 2128 4600 2406 4451 
Q 2684 4303 2865 4023 
Q 3047 3744 3150 3342 
Q 3253 2941 3253 2259 
Q 3253 1453 3087 958 
Q 2922 463 2592 192 
Q 2263 -78 1759 -78 
Q 1097 -78 719 397 
Q 266 969 266 2259 
z
M 844 2259 
Q 844 1131 1108 757 
Q 1372 384 1759 384 
Q 2147 384 2411 759 
Q 2675 1134 2675 2259 
Q 2675 3391 2411 3762 
Q 2147 4134 1753 4134 
Q 1366 4134 1134 3806 
Q 844 3388 844 2259 
z
" transform="scale(0.015625)"/>
       </defs>
       <use xlink:href="#ArialMT-30"/>
      </g>
     </g>
    </g>
    <g id="xtick_2">
     <g id="line2d_3">
      <path d="M 188.997255 354.368823 
L 188.997255 3.00024 
" clip-path="url(#p453731677a)" style="fill: none; stroke: #b0b0b0; stroke-opacity: 0.25; stroke-width: 0.8; stroke-linecap: square"/>
     </g>
     <g id="line2d_4">
      <g>
       <use xlink:href="#m2bbdd10619" x="188.997255" y="354.368823" style="stroke: #000000; stroke-width: 0.8"/>
      </g>
     </g>
     <g id="text_2">
      <!-- 20 -->
      <g transform="translate(181.211942 371.38976) scale(0.14 -0.14)">
       <defs>
        <path id="ArialMT-32" d="M 3222 541 
L 3222 0 
L 194 0 
Q 188 203 259 391 
Q 375 700 629 1000 
Q 884 1300 1366 1694 
Q 2113 2306 2375 2664 
Q 2638 3022 2638 3341 
Q 2638 3675 2398 3904 
Q 2159 4134 1775 4134 
Q 1369 4134 1125 3890 
Q 881 3647 878 3216 
L 300 3275 
Q 359 3922 746 4261 
Q 1134 4600 1788 4600 
Q 2447 4600 2831 4234 
Q 3216 3869 3216 3328 
Q 3216 3053 3103 2787 
Q 2991 2522 2730 2228 
Q 2469 1934 1863 1422 
Q 1356 997 1212 845 
Q 1069 694 975 541 
L 3222 541 
z
" transform="scale(0.015625)"/>
       </defs>
       <use xlink:href="#ArialMT-32"/>
       <use xlink:href="#ArialMT-30" x="55.615234"/>
      </g>
     </g>
    </g>
    <g id="xtick_3">
     <g id="line2d_5">
      <path d="M 314.331145 354.368823 
L 314.331145 3.00024 
" clip-path="url(#p453731677a)" style="fill: none; stroke: #b0b0b0; stroke-opacity: 0.25; stroke-width: 0.8; stroke-linecap: square"/>
     </g>
     <g id="line2d_6">
      <g>
       <use xlink:href="#m2bbdd10619" x="314.331145" y="354.368823" style="stroke: #000000; stroke-width: 0.8"/>
      </g>
     </g>
     <g id="text_3">
      <!-- 40 -->
      <g transform="translate(306.545833 371.38976) scale(0.14 -0.14)">
       <defs>
        <path id="ArialMT-34" d="M 2069 0 
L 2069 1097 
L 81 1097 
L 81 1613 
L 2172 4581 
L 2631 4581 
L 2631 1613 
L 3250 1613 
L 3250 1097 
L 2631 1097 
L 2631 0 
L 2069 0 
z
M 2069 1613 
L 2069 3678 
L 634 1613 
L 2069 1613 
z
" transform="scale(0.015625)"/>
       </defs>
       <use xlink:href="#ArialMT-34"/>
       <use xlink:href="#ArialMT-30" x="55.615234"/>
      </g>
     </g>
    </g>
    <g id="xtick_4">
     <g id="line2d_7">
      <path d="M 439.665035 354.368823 
L 439.665035 3.00024 
" clip-path="url(#p453731677a)" style="fill: none; stroke: #b0b0b0; stroke-opacity: 0.25; stroke-width: 0.8; stroke-linecap: square"/>
     </g>
     <g id="line2d_8">
      <g>
       <use xlink:href="#m2bbdd10619" x="439.665035" y="354.368823" style="stroke: #000000; stroke-width: 0.8"/>
      </g>
     </g>
     <g id="text_4">
      <!-- 60 -->
      <g transform="translate(431.879723 371.38976) scale(0.14 -0.14)">
       <defs>
        <path id="ArialMT-36" d="M 3184 3459 
L 2625 3416 
Q 2550 3747 2413 3897 
Q 2184 4138 1850 4138 
Q 1581 4138 1378 3988 
Q 1113 3794 959 3422 
Q 806 3050 800 2363 
Q 1003 2672 1297 2822 
Q 1591 2972 1913 2972 
Q 2475 2972 2870 2558 
Q 3266 2144 3266 1488 
Q 3266 1056 3080 686 
Q 2894 316 2569 119 
Q 2244 -78 1831 -78 
Q 1128 -78 684 439 
Q 241 956 241 2144 
Q 241 3472 731 4075 
Q 1159 4600 1884 4600 
Q 2425 4600 2770 4297 
Q 3116 3994 3184 3459 
z
M 888 1484 
Q 888 1194 1011 928 
Q 1134 663 1356 523 
Q 1578 384 1822 384 
Q 2178 384 2434 671 
Q 2691 959 2691 1453 
Q 2691 1928 2437 2201 
Q 2184 2475 1800 2475 
Q 1419 2475 1153 2201 
Q 888 1928 888 1484 
z
" transform="scale(0.015625)"/>
       </defs>
       <use xlink:href="#ArialMT-36"/>
       <use xlink:href="#ArialMT-30" x="55.615234"/>
      </g>
     </g>
    </g>
    <g id="xtick_5">
     <g id="line2d_9">
      <path d="M 564.998925 354.368823 
L 564.998925 3.00024 
" clip-path="url(#p453731677a)" style="fill: none; stroke: #b0b0b0; stroke-opacity: 0.25; stroke-width: 0.8; stroke-linecap: square"/>
     </g>
     <g id="line2d_10">
      <g>
       <use xlink:href="#m2bbdd10619" x="564.998925" y="354.368823" style="stroke: #000000; stroke-width: 0.8"/>
      </g>
     </g>
     <g id="text_5">
      <!-- 80 -->
      <g transform="translate(557.213612 371.38976) scale(0.14 -0.14)">
       <defs>
        <path id="ArialMT-38" d="M 1131 2484 
Q 781 2613 612 2850 
Q 444 3088 444 3419 
Q 444 3919 803 4259 
Q 1163 4600 1759 4600 
Q 2359 4600 2725 4251 
Q 3091 3903 3091 3403 
Q 3091 3084 2923 2848 
Q 2756 2613 2416 2484 
Q 2838 2347 3058 2040 
Q 3278 1734 3278 1309 
Q 3278 722 2862 322 
Q 2447 -78 1769 -78 
Q 1091 -78 675 323 
Q 259 725 259 1325 
Q 259 1772 486 2073 
Q 713 2375 1131 2484 
z
M 1019 3438 
Q 1019 3113 1228 2906 
Q 1438 2700 1772 2700 
Q 2097 2700 2305 2904 
Q 2513 3109 2513 3406 
Q 2513 3716 2298 3927 
Q 2084 4138 1766 4138 
Q 1444 4138 1231 3931 
Q 1019 3725 1019 3438 
z
M 838 1322 
Q 838 1081 952 856 
Q 1066 631 1291 507 
Q 1516 384 1775 384 
Q 2178 384 2440 643 
Q 2703 903 2703 1303 
Q 2703 1709 2433 1975 
Q 2163 2241 1756 2241 
Q 1359 2241 1098 1978 
Q 838 1716 838 1322 
z
" transform="scale(0.015625)"/>
       </defs>
       <use xlink:href="#ArialMT-38"/>
       <use xlink:href="#ArialMT-30" x="55.615234"/>
      </g>
     </g>
    </g>
    <g id="xtick_6">
     <g id="line2d_11">
      <path d="M 690.332815 354.368823 
L 690.332815 3.00024 
" clip-path="url(#p453731677a)" style="fill: none; stroke: #b0b0b0; stroke-opacity: 0.25; stroke-width: 0.8; stroke-linecap: square"/>
     </g>
     <g id="line2d_12">
      <g>
       <use xlink:href="#m2bbdd10619" x="690.332815" y="354.368823" style="stroke: #000000; stroke-width: 0.8"/>
      </g>
     </g>
     <g id="text_6">
      <!-- 100 -->
      <g transform="translate(678.654846 371.38976) scale(0.14 -0.14)">
       <defs>
        <path id="ArialMT-31" d="M 2384 0 
L 1822 0 
L 1822 3584 
Q 1619 3391 1289 3197 
Q 959 3003 697 2906 
L 697 3450 
Q 1169 3672 1522 3987 
Q 1875 4303 2022 4600 
L 2384 4600 
L 2384 0 
z
" transform="scale(0.015625)"/>
       </defs>
       <use xlink:href="#ArialMT-31"/>
       <use xlink:href="#ArialMT-30" x="55.615234"/>
       <use xlink:href="#ArialMT-30" x="111.230469"/>
      </g>
     </g>
    </g>
    <g id="text_7">
     <!-- Step Index -->
     <g transform="translate(370.084063 389.81976) scale(0.16 -0.16)">
      <defs>
       <path id="ArialMT-53" d="M 288 1472 
L 859 1522 
Q 900 1178 1048 958 
Q 1197 738 1509 602 
Q 1822 466 2213 466 
Q 2559 466 2825 569 
Q 3091 672 3220 851 
Q 3350 1031 3350 1244 
Q 3350 1459 3225 1620 
Q 3100 1781 2813 1891 
Q 2628 1963 1997 2114 
Q 1366 2266 1113 2400 
Q 784 2572 623 2826 
Q 463 3081 463 3397 
Q 463 3744 659 4045 
Q 856 4347 1234 4503 
Q 1613 4659 2075 4659 
Q 2584 4659 2973 4495 
Q 3363 4331 3572 4012 
Q 3781 3694 3797 3291 
L 3216 3247 
Q 3169 3681 2898 3903 
Q 2628 4125 2100 4125 
Q 1550 4125 1298 3923 
Q 1047 3722 1047 3438 
Q 1047 3191 1225 3031 
Q 1400 2872 2139 2705 
Q 2878 2538 3153 2413 
Q 3553 2228 3743 1945 
Q 3934 1663 3934 1294 
Q 3934 928 3725 604 
Q 3516 281 3123 101 
Q 2731 -78 2241 -78 
Q 1619 -78 1198 103 
Q 778 284 539 648 
Q 300 1013 288 1472 
z
" transform="scale(0.015625)"/>
       <path id="ArialMT-74" d="M 1650 503 
L 1731 6 
Q 1494 -44 1306 -44 
Q 1000 -44 831 53 
Q 663 150 594 308 
Q 525 466 525 972 
L 525 2881 
L 113 2881 
L 113 3319 
L 525 3319 
L 525 4141 
L 1084 4478 
L 1084 3319 
L 1650 3319 
L 1650 2881 
L 1084 2881 
L 1084 941 
Q 1084 700 1114 631 
Q 1144 563 1211 522 
Q 1278 481 1403 481 
Q 1497 481 1650 503 
z
" transform="scale(0.015625)"/>
       <path id="ArialMT-65" d="M 2694 1069 
L 3275 997 
Q 3138 488 2766 206 
Q 2394 -75 1816 -75 
Q 1088 -75 661 373 
Q 234 822 234 1631 
Q 234 2469 665 2931 
Q 1097 3394 1784 3394 
Q 2450 3394 2872 2941 
Q 3294 2488 3294 1666 
Q 3294 1616 3291 1516 
L 816 1516 
Q 847 969 1125 678 
Q 1403 388 1819 388 
Q 2128 388 2347 550 
Q 2566 713 2694 1069 
z
M 847 1978 
L 2700 1978 
Q 2663 2397 2488 2606 
Q 2219 2931 1791 2931 
Q 1403 2931 1139 2672 
Q 875 2413 847 1978 
z
" transform="scale(0.015625)"/>
       <path id="ArialMT-70" d="M 422 -1272 
L 422 3319 
L 934 3319 
L 934 2888 
Q 1116 3141 1344 3267 
Q 1572 3394 1897 3394 
Q 2322 3394 2647 3175 
Q 2972 2956 3137 2557 
Q 3303 2159 3303 1684 
Q 3303 1175 3120 767 
Q 2938 359 2589 142 
Q 2241 -75 1856 -75 
Q 1575 -75 1351 44 
Q 1128 163 984 344 
L 984 -1272 
L 422 -1272 
z
M 931 1641 
Q 931 1000 1190 694 
Q 1450 388 1819 388 
Q 2194 388 2461 705 
Q 2728 1022 2728 1688 
Q 2728 2322 2467 2637 
Q 2206 2953 1844 2953 
Q 1484 2953 1207 2617 
Q 931 2281 931 1641 
z
" transform="scale(0.015625)"/>
       <path id="ArialMT-20" transform="scale(0.015625)"/>
       <path id="ArialMT-49" d="M 597 0 
L 597 4581 
L 1203 4581 
L 1203 0 
L 597 0 
z
" transform="scale(0.015625)"/>
       <path id="ArialMT-6e" d="M 422 0 
L 422 3319 
L 928 3319 
L 928 2847 
Q 1294 3394 1984 3394 
Q 2284 3394 2536 3286 
Q 2788 3178 2913 3003 
Q 3038 2828 3088 2588 
Q 3119 2431 3119 2041 
L 3119 0 
L 2556 0 
L 2556 2019 
Q 2556 2363 2490 2533 
Q 2425 2703 2258 2804 
Q 2091 2906 1866 2906 
Q 1506 2906 1245 2678 
Q 984 2450 984 1813 
L 984 0 
L 422 0 
z
" transform="scale(0.015625)"/>
       <path id="ArialMT-64" d="M 2575 0 
L 2575 419 
Q 2259 -75 1647 -75 
Q 1250 -75 917 144 
Q 584 363 401 755 
Q 219 1147 219 1656 
Q 219 2153 384 2558 
Q 550 2963 881 3178 
Q 1213 3394 1622 3394 
Q 1922 3394 2156 3267 
Q 2391 3141 2538 2938 
L 2538 4581 
L 3097 4581 
L 3097 0 
L 2575 0 
z
M 797 1656 
Q 797 1019 1065 703 
Q 1334 388 1700 388 
Q 2069 388 2326 689 
Q 2584 991 2584 1609 
Q 2584 2291 2321 2609 
Q 2059 2928 1675 2928 
Q 1300 2928 1048 2622 
Q 797 2316 797 1656 
z
" transform="scale(0.015625)"/>
       <path id="ArialMT-78" d="M 47 0 
L 1259 1725 
L 138 3319 
L 841 3319 
L 1350 2541 
Q 1494 2319 1581 2169 
Q 1719 2375 1834 2534 
L 2394 3319 
L 3066 3319 
L 1919 1756 
L 3153 0 
L 2463 0 
L 1781 1031 
L 1600 1309 
L 728 0 
L 47 0 
z
" transform="scale(0.015625)"/>
      </defs>
      <use xlink:href="#ArialMT-53"/>
      <use xlink:href="#ArialMT-74" x="66.699219"/>
      <use xlink:href="#ArialMT-65" x="94.482422"/>
      <use xlink:href="#ArialMT-70" x="150.097656"/>
      <use xlink:href="#ArialMT-20" x="205.712891"/>
      <use xlink:href="#ArialMT-49" x="233.496094"/>
      <use xlink:href="#ArialMT-6e" x="261.279297"/>
      <use xlink:href="#ArialMT-64" x="316.894531"/>
      <use xlink:href="#ArialMT-65" x="372.509766"/>
      <use xlink:href="#ArialMT-78" x="428.125"/>
     </g>
    </g>
   </g>
   <g id="matplotlib.axis_2">
    <g id="ytick_1">
     <g id="line2d_13">
      <path d="M 63.663365 315.319557 
L 752.99976 315.319557 
" clip-path="url(#p453731677a)" style="fill: none; stroke: #b0b0b0; stroke-opacity: 0.25; stroke-width: 0.8; stroke-linecap: square"/>
     </g>
     <g id="line2d_14">
      <defs>
       <path id="m25c5564db5" d="M 0 0 
L -3.5 0 
" style="stroke: #000000; stroke-width: 0.8"/>
      </defs>
      <g>
       <use xlink:href="#m25c5564db5" x="63.663365" y="315.319557" style="stroke: #000000; stroke-width: 0.8"/>
      </g>
     </g>
     <g id="text_8">
      <!-- 0.360 -->
      <g transform="translate(21.63274 320.330026) scale(0.14 -0.14)">
       <defs>
        <path id="ArialMT-2e" d="M 581 0 
L 581 641 
L 1222 641 
L 1222 0 
L 581 0 
z
" transform="scale(0.015625)"/>
        <path id="ArialMT-33" d="M 269 1209 
L 831 1284 
Q 928 806 1161 595 
Q 1394 384 1728 384 
Q 2125 384 2398 659 
Q 2672 934 2672 1341 
Q 2672 1728 2419 1979 
Q 2166 2231 1775 2231 
Q 1616 2231 1378 2169 
L 1441 2663 
Q 1497 2656 1531 2656 
Q 1891 2656 2178 2843 
Q 2466 3031 2466 3422 
Q 2466 3731 2256 3934 
Q 2047 4138 1716 4138 
Q 1388 4138 1169 3931 
Q 950 3725 888 3313 
L 325 3413 
Q 428 3978 793 4289 
Q 1159 4600 1703 4600 
Q 2078 4600 2393 4439 
Q 2709 4278 2876 4000 
Q 3044 3722 3044 3409 
Q 3044 3113 2884 2869 
Q 2725 2625 2413 2481 
Q 2819 2388 3044 2092 
Q 3269 1797 3269 1353 
Q 3269 753 2831 336 
Q 2394 -81 1725 -81 
Q 1122 -81 723 278 
Q 325 638 269 1209 
z
" transform="scale(0.015625)"/>
       </defs>
       <use xlink:href="#ArialMT-30"/>
       <use xlink:href="#ArialMT-2e" x="55.615234"/>
       <use xlink:href="#ArialMT-33" x="83.398438"/>
       <use xlink:href="#ArialMT-36" x="139.013672"/>
       <use xlink:href="#ArialMT-30" x="194.628906"/>
      </g>
     </g>
    </g>
    <g id="ytick_2">
     <g id="line2d_15">
      <path d="M 63.663365 268.565168 
L 752.99976 268.565168 
" clip-path="url(#p453731677a)" style="fill: none; stroke: #b0b0b0; stroke-opacity: 0.25; stroke-width: 0.8; stroke-linecap: square"/>
     </g>
     <g id="line2d_16">
      <g>
       <use xlink:href="#m25c5564db5" x="63.663365" y="268.565168" style="stroke: #000000; stroke-width: 0.8"/>
      </g>
     </g>
     <g id="text_9">
      <!-- 0.365 -->
      <g transform="translate(21.63274 273.575637) scale(0.14 -0.14)">
       <defs>
        <path id="ArialMT-35" d="M 266 1200 
L 856 1250 
Q 922 819 1161 601 
Q 1400 384 1738 384 
Q 2144 384 2425 690 
Q 2706 997 2706 1503 
Q 2706 1984 2436 2262 
Q 2166 2541 1728 2541 
Q 1456 2541 1237 2417 
Q 1019 2294 894 2097 
L 366 2166 
L 809 4519 
L 3088 4519 
L 3088 3981 
L 1259 3981 
L 1013 2750 
Q 1425 3038 1878 3038 
Q 2478 3038 2890 2622 
Q 3303 2206 3303 1553 
Q 3303 931 2941 478 
Q 2500 -78 1738 -78 
Q 1113 -78 717 272 
Q 322 622 266 1200 
z
" transform="scale(0.015625)"/>
       </defs>
       <use xlink:href="#ArialMT-30"/>
       <use xlink:href="#ArialMT-2e" x="55.615234"/>
       <use xlink:href="#ArialMT-33" x="83.398438"/>
       <use xlink:href="#ArialMT-36" x="139.013672"/>
       <use xlink:href="#ArialMT-35" x="194.628906"/>
      </g>
     </g>
    </g>
    <g id="ytick_3">
     <g id="line2d_17">
      <path d="M 63.663365 221.810779 
L 752.99976 221.810779 
" clip-path="url(#p453731677a)" style="fill: none; stroke: #b0b0b0; stroke-opacity: 0.25; stroke-width: 0.8; stroke-linecap: square"/>
     </g>
     <g id="line2d_18">
      <g>
       <use xlink:href="#m25c5564db5" x="63.663365" y="221.810779" style="stroke: #000000; stroke-width: 0.8"/>
      </g>
     </g>
     <g id="text_10">
      <!-- 0.370 -->
      <g transform="translate(21.63274 226.821248) scale(0.14 -0.14)">
       <defs>
        <path id="ArialMT-37" d="M 303 3981 
L 303 4522 
L 3269 4522 
L 3269 4084 
Q 2831 3619 2401 2847 
Q 1972 2075 1738 1259 
Q 1569 684 1522 0 
L 944 0 
Q 953 541 1156 1306 
Q 1359 2072 1739 2783 
Q 2119 3494 2547 3981 
L 303 3981 
z
" transform="scale(0.015625)"/>
       </defs>
       <use xlink:href="#ArialMT-30"/>
       <use xlink:href="#ArialMT-2e" x="55.615234"/>
       <use xlink:href="#ArialMT-33" x="83.398438"/>
       <use xlink:href="#ArialMT-37" x="139.013672"/>
       <use xlink:href="#ArialMT-30" x="194.628906"/>
      </g>
     </g>
    </g>
    <g id="ytick_4">
     <g id="line2d_19">
      <path d="M 63.663365 175.056391 
L 752.99976 175.056391 
" clip-path="url(#p453731677a)" style="fill: none; stroke: #b0b0b0; stroke-opacity: 0.25; stroke-width: 0.8; stroke-linecap: square"/>
     </g>
     <g id="line2d_20">
      <g>
       <use xlink:href="#m25c5564db5" x="63.663365" y="175.056391" style="stroke: #000000; stroke-width: 0.8"/>
      </g>
     </g>
     <g id="text_11">
      <!-- 0.375 -->
      <g transform="translate(21.63274 180.066859) scale(0.14 -0.14)">
       <use xlink:href="#ArialMT-30"/>
       <use xlink:href="#ArialMT-2e" x="55.615234"/>
       <use xlink:href="#ArialMT-33" x="83.398438"/>
       <use xlink:href="#ArialMT-37" x="139.013672"/>
       <use xlink:href="#ArialMT-35" x="194.628906"/>
      </g>
     </g>
    </g>
    <g id="ytick_5">
     <g id="line2d_21">
      <path d="M 63.663365 128.302002 
L 752.99976 128.302002 
" clip-path="url(#p453731677a)" style="fill: none; stroke: #b0b0b0; stroke-opacity: 0.25; stroke-width: 0.8; stroke-linecap: square"/>
     </g>
     <g id="line2d_22">
      <g>
       <use xlink:href="#m25c5564db5" x="63.663365" y="128.302002" style="stroke: #000000; stroke-width: 0.8"/>
      </g>
     </g>
     <g id="text_12">
      <!-- 0.380 -->
      <g transform="translate(21.63274 133.312471) scale(0.14 -0.14)">
       <use xlink:href="#ArialMT-30"/>
       <use xlink:href="#ArialMT-2e" x="55.615234"/>
       <use xlink:href="#ArialMT-33" x="83.398438"/>
       <use xlink:href="#ArialMT-38" x="139.013672"/>
       <use xlink:href="#ArialMT-30" x="194.628906"/>
      </g>
     </g>
    </g>
    <g id="ytick_6">
     <g id="line2d_23">
      <path d="M 63.663365 81.547613 
L 752.99976 81.547613 
" clip-path="url(#p453731677a)" style="fill: none; stroke: #b0b0b0; stroke-opacity: 0.25; stroke-width: 0.8; stroke-linecap: square"/>
     </g>
     <g id="line2d_24">
      <g>
       <use xlink:href="#m25c5564db5" x="63.663365" y="81.547613" style="stroke: #000000; stroke-width: 0.8"/>
      </g>
     </g>
     <g id="text_13">
      <!-- 0.385 -->
      <g transform="translate(21.63274 86.558082) scale(0.14 -0.14)">
       <use xlink:href="#ArialMT-30"/>
       <use xlink:href="#ArialMT-2e" x="55.615234"/>
       <use xlink:href="#ArialMT-33" x="83.398438"/>
       <use xlink:href="#ArialMT-38" x="139.013672"/>
       <use xlink:href="#ArialMT-35" x="194.628906"/>
      </g>
     </g>
    </g>
    <g id="ytick_7">
     <g id="line2d_25">
      <path d="M 63.663365 34.793224 
L 752.99976 34.793224 
" clip-path="url(#p453731677a)" style="fill: none; stroke: #b0b0b0; stroke-opacity: 0.25; stroke-width: 0.8; stroke-linecap: square"/>
     </g>
     <g id="line2d_26">
      <g>
       <use xlink:href="#m25c5564db5" x="63.663365" y="34.793224" style="stroke: #000000; stroke-width: 0.8"/>
      </g>
     </g>
     <g id="text_14">
      <!-- 0.390 -->
      <g transform="translate(21.63274 39.803693) scale(0.14 -0.14)">
       <defs>
        <path id="ArialMT-39" d="M 350 1059 
L 891 1109 
Q 959 728 1153 556 
Q 1347 384 1650 384 
Q 1909 384 2104 503 
Q 2300 622 2425 820 
Q 2550 1019 2634 1356 
Q 2719 1694 2719 2044 
Q 2719 2081 2716 2156 
Q 2547 1888 2255 1720 
Q 1963 1553 1622 1553 
Q 1053 1553 659 1965 
Q 266 2378 266 3053 
Q 266 3750 677 4175 
Q 1088 4600 1706 4600 
Q 2153 4600 2523 4359 
Q 2894 4119 3086 3673 
Q 3278 3228 3278 2384 
Q 3278 1506 3087 986 
Q 2897 466 2520 194 
Q 2144 -78 1638 -78 
Q 1100 -78 759 220 
Q 419 519 350 1059 
z
M 2653 3081 
Q 2653 3566 2395 3850 
Q 2138 4134 1775 4134 
Q 1400 4134 1122 3828 
Q 844 3522 844 3034 
Q 844 2597 1108 2323 
Q 1372 2050 1759 2050 
Q 2150 2050 2401 2323 
Q 2653 2597 2653 3081 
z
" transform="scale(0.015625)"/>
       </defs>
       <use xlink:href="#ArialMT-30"/>
       <use xlink:href="#ArialMT-2e" x="55.615234"/>
       <use xlink:href="#ArialMT-33" x="83.398438"/>
       <use xlink:href="#ArialMT-39" x="139.013672"/>
       <use xlink:href="#ArialMT-30" x="194.628906"/>
      </g>
     </g>
    </g>
    <g id="text_15">
     <!-- MSE Loss -->
     <g transform="translate(14.45274 215.140781) rotate(-90) scale(0.16 -0.16)">
      <defs>
       <path id="ArialMT-4d" d="M 475 0 
L 475 4581 
L 1388 4581 
L 2472 1338 
Q 2622 884 2691 659 
Q 2769 909 2934 1394 
L 4031 4581 
L 4847 4581 
L 4847 0 
L 4263 0 
L 4263 3834 
L 2931 0 
L 2384 0 
L 1059 3900 
L 1059 0 
L 475 0 
z
" transform="scale(0.015625)"/>
       <path id="ArialMT-45" d="M 506 0 
L 506 4581 
L 3819 4581 
L 3819 4041 
L 1113 4041 
L 1113 2638 
L 3647 2638 
L 3647 2100 
L 1113 2100 
L 1113 541 
L 3925 541 
L 3925 0 
L 506 0 
z
" transform="scale(0.015625)"/>
       <path id="ArialMT-4c" d="M 469 0 
L 469 4581 
L 1075 4581 
L 1075 541 
L 3331 541 
L 3331 0 
L 469 0 
z
" transform="scale(0.015625)"/>
       <path id="ArialMT-6f" d="M 213 1659 
Q 213 2581 725 3025 
Q 1153 3394 1769 3394 
Q 2453 3394 2887 2945 
Q 3322 2497 3322 1706 
Q 3322 1066 3130 698 
Q 2938 331 2570 128 
Q 2203 -75 1769 -75 
Q 1072 -75 642 372 
Q 213 819 213 1659 
z
M 791 1659 
Q 791 1022 1069 705 
Q 1347 388 1769 388 
Q 2188 388 2466 706 
Q 2744 1025 2744 1678 
Q 2744 2294 2464 2611 
Q 2184 2928 1769 2928 
Q 1347 2928 1069 2612 
Q 791 2297 791 1659 
z
" transform="scale(0.015625)"/>
       <path id="ArialMT-73" d="M 197 991 
L 753 1078 
Q 800 744 1014 566 
Q 1228 388 1613 388 
Q 2000 388 2187 545 
Q 2375 703 2375 916 
Q 2375 1106 2209 1216 
Q 2094 1291 1634 1406 
Q 1016 1563 777 1677 
Q 538 1791 414 1992 
Q 291 2194 291 2438 
Q 291 2659 392 2848 
Q 494 3038 669 3163 
Q 800 3259 1026 3326 
Q 1253 3394 1513 3394 
Q 1903 3394 2198 3281 
Q 2494 3169 2634 2976 
Q 2775 2784 2828 2463 
L 2278 2388 
Q 2241 2644 2061 2787 
Q 1881 2931 1553 2931 
Q 1166 2931 1000 2803 
Q 834 2675 834 2503 
Q 834 2394 903 2306 
Q 972 2216 1119 2156 
Q 1203 2125 1616 2013 
Q 2213 1853 2448 1751 
Q 2684 1650 2818 1456 
Q 2953 1263 2953 975 
Q 2953 694 2789 445 
Q 2625 197 2315 61 
Q 2006 -75 1616 -75 
Q 969 -75 630 194 
Q 291 463 197 991 
z
" transform="scale(0.015625)"/>
      </defs>
      <use xlink:href="#ArialMT-4d"/>
      <use xlink:href="#ArialMT-53" x="83.300781"/>
      <use xlink:href="#ArialMT-45" x="150"/>
      <use xlink:href="#ArialMT-20" x="216.699219"/>
      <use xlink:href="#ArialMT-4c" x="244.482422"/>
      <use xlink:href="#ArialMT-6f" x="300.097656"/>
      <use xlink:href="#ArialMT-73" x="355.712891"/>
      <use xlink:href="#ArialMT-73" x="405.712891"/>
     </g>
    </g>
   </g>
   <g id="line2d_27">
    <path d="M 63.663365 18.971539 
L 69.930059 62.621437 
L 76.196754 98.603614 
L 82.463448 116.220668 
L 88.730143 130.396599 
L 94.996837 139.747476 
L 101.263532 142.440529 
L 107.530226 158.1126 
L 113.796921 157.102705 
L 120.063615 165.107057 
L 126.33031 166.865022 
L 132.597004 167.463478 
L 138.863699 174.981584 
L 145.130393 172.774777 
L 151.397088 183.659198 
L 157.663782 178.310496 
L 163.930477 183.584391 
L 170.197171 186.988111 
L 176.463866 184.818707 
L 182.73056 181.040952 
L 188.997255 170.68018 
L 195.263949 170.119127 
L 201.530644 164.546004 
L 207.797338 160.2446 
L 214.064033 159.122495 
L 220.330727 156.766074 
L 226.597422 152.988319 
L 232.864116 149.996038 
L 239.130811 150.893723 
L 245.397505 147.602214 
L 251.6642 151.492179 
L 257.930895 149.846424 
L 264.197589 148.499898 
L 270.464284 152.539477 
L 276.730978 147.041161 
L 282.997673 139.822283 
L 289.264367 146.854143 
L 295.531062 141.617652 
L 301.797756 147.789231 
L 308.064451 138.064318 
L 314.331145 145.283196 
L 320.597839 136.904809 
L 326.864534 135.745301 
L 333.131229 137.65288 
L 345.664617 132.75302 
L 351.931312 128.863055 
L 358.198007 130.209581 
L 364.464701 133.6133 
L 370.731395 130.209581 
L 376.99809 130.321792 
L 383.264785 135.595687 
L 389.531479 137.428459 
L 395.798173 133.725511 
L 402.064868 131.668318 
L 408.331563 124.786072 
L 414.598257 125.945581 
L 420.864951 118.988528 
L 427.131646 120.484668 
L 433.398341 121.120528 
L 439.665035 128.114984 
L 445.931729 123.327335 
L 452.198424 118.390071 
L 458.465119 111.76965 
L 464.731813 114.275685 
L 470.998507 112.816948 
L 477.265202 109.712457 
L 483.531897 108.964387 
L 489.798591 120.970914 
L 496.065285 124.748668 
L 502.33198 129.124879 
L 508.598675 129.23709 
L 514.865369 134.24916 
L 521.132063 128.750844 
L 527.398758 123.402142 
L 533.665453 122.579265 
L 539.932147 117.791615 
L 546.198841 119.063335 
L 552.465536 118.951124 
L 558.732231 120.222844 
L 564.998925 118.352668 
L 577.532314 121.232738 
L 583.799009 121.457159 
L 590.065703 118.352668 
L 596.332397 115.996247 
L 602.599092 120.260247 
L 608.865787 129.124879 
L 615.132481 127.778353 
L 621.399175 130.09737 
L 627.66587 126.319616 
L 633.932565 132.378985 
L 640.199259 140.458143 
L 646.465953 132.191967 
L 652.732648 127.927967 
L 658.999343 131.705721 
L 665.266037 131.032458 
L 671.532731 131.331686 
L 677.799426 138.962003 
L 684.066121 144.422915 
L 690.332815 140.645161 
L 696.599509 137.353652 
L 702.866204 133.875125 
L 709.132899 135.670494 
L 715.399593 128.900458 
L 721.666287 137.129231 
L 727.932982 138.438353 
L 734.199677 138.139125 
L 740.466371 130.62102 
L 746.733065 139.410845 
L 752.99976 143.30081 
L 757 142.345774 
L 757 142.345774 
" clip-path="url(#p453731677a)" style="fill: none; stroke: #1f77b4; stroke-width: 2; stroke-linecap: square"/>
   </g>
   <g id="line2d_28">
    <path d="M 63.663365 97.855544 
L 69.930059 137.278845 
L 76.196754 188.222427 
L 82.463448 208.569937 
L 88.730143 208.569937 
L 94.996837 216.686498 
L 101.263532 218.107832 
L 107.530226 219.9032 
L 113.796921 226.18699 
L 120.063615 222.858078 
L 126.33031 217.471972 
L 132.597004 217.846007 
L 138.863699 219.267341 
L 145.130393 218.033025 
L 151.397088 225.43892 
L 157.663782 229.254078 
L 163.930477 227.57092 
L 170.197171 222.67106 
L 176.463866 229.403692 
L 182.73056 231.348675 
L 188.997255 228.019762 
L 195.263949 233.742499 
L 201.530644 238.230921 
L 207.797338 239.876675 
L 214.064033 240.026289 
L 220.330727 226.972464 
L 226.597422 224.840464 
L 232.864116 216.873516 
L 239.130811 218.743692 
L 245.397505 223.531341 
L 251.6642 221.025306 
L 257.930895 228.730429 
L 264.197589 230.525798 
L 270.464284 223.606148 
L 276.730978 231.647903 
L 282.997673 236.024114 
L 289.264367 233.705096 
L 295.531062 238.230921 
L 301.797756 241.410219 
L 308.064451 230.039552 
L 314.331145 223.493937 
L 320.597839 229.328885 
L 326.864534 233.667692 
L 333.131229 232.695201 
L 339.397923 222.484043 
L 345.664617 224.616043 
L 351.931312 219.79099 
L 358.198007 219.229937 
L 364.464701 222.55885 
L 370.731395 218.893306 
L 376.99809 213.245375 
L 383.264785 215.339972 
L 389.531479 218.930709 
L 395.798173 204.979199 
L 402.064868 197.984743 
L 408.331563 201.874708 
L 414.598257 195.628322 
L 420.864951 194.356602 
L 427.131646 194.206988 
L 433.398341 190.653655 
L 439.665035 191.177304 
L 445.931729 188.671269 
L 452.198424 182.911128 
L 458.465119 175.206005 
L 464.731813 179.582216 
L 470.998507 189.381935 
L 477.265202 191.364321 
L 483.531897 190.952883 
L 489.798591 189.531549 
L 496.065285 203.782287 
L 502.33198 201.351059 
L 508.598675 202.024322 
L 514.865369 204.081515 
L 521.132063 205.914287 
L 527.398758 212.310288 
L 533.665453 220.202428 
L 539.932147 218.556674 
L 546.198841 218.033025 
L 552.465536 230.151762 
L 558.732231 236.959201 
L 564.998925 233.667692 
L 571.265619 231.273868 
L 577.532314 233.069236 
L 583.799009 237.782079 
L 590.065703 235.949307 
L 596.332397 229.740324 
L 602.599092 238.0065 
L 608.865787 240.25071 
L 615.132481 243.916254 
L 621.399175 244.552114 
L 627.66587 236.585166 
L 633.932565 235.537868 
L 640.199259 240.549938 
L 646.465953 242.494921 
L 652.732648 240.288114 
L 658.999343 245.374991 
L 665.266037 248.292465 
L 671.532731 240.25071 
L 677.799426 244.365097 
L 684.066121 244.926149 
L 690.332815 244.29029 
L 696.599509 247.245167 
L 702.866204 249.414571 
L 709.132899 244.963553 
L 715.399593 240.1385 
L 721.666287 240.549938 
L 727.932982 245.936044 
L 734.199677 244.028465 
L 740.466371 241.185798 
L 746.733065 239.427833 
L 752.99976 251.284746 
L 757 254.102103 
L 757 254.102103 
" clip-path="url(#p453731677a)" style="fill: none; stroke: #ff7f0e; stroke-width: 2; stroke-linecap: square"/>
   </g>
   <g id="line2d_29">
    <path d="M 63.663365 160.992671 
L 69.930059 197.610708 
L 76.196754 243.617026 
L 82.463448 257.418922 
L 88.730143 258.653238 
L 94.996837 258.989869 
L 101.263532 255.361729 
L 107.530226 257.867764 
L 113.796921 261.23408 
L 120.063615 255.099904 
L 126.33031 264.6378 
L 132.597004 269.911695 
L 138.863699 278.514502 
L 145.130393 277.167976 
L 151.397088 269.799484 
L 157.663782 273.128397 
L 163.930477 271.520046 
L 170.197171 275.222993 
L 176.463866 278.514502 
L 182.73056 280.870923 
L 188.997255 282.741099 
L 195.263949 289.024889 
L 201.530644 283.489169 
L 207.797338 280.384678 
L 214.064033 275.222993 
L 220.330727 279.187765 
L 226.597422 276.906151 
L 232.864116 277.167976 
L 239.130811 276.719134 
L 245.397505 271.520046 
L 257.930895 278.477099 
L 270.464284 281.431976 
L 276.730978 278.402292 
L 282.997673 273.689449 
L 289.264367 269.949098 
L 295.531062 271.482642 
L 301.797756 267.592677 
L 308.064451 274.175695 
L 314.331145 279.412186 
L 320.597839 279.711415 
L 326.864534 271.707063 
L 333.131229 270.809379 
L 339.397923 270.248326 
L 345.664617 269.275835 
L 351.931312 257.830361 
L 358.198007 255.361729 
L 364.464701 251.509167 
L 370.731395 265.423273 
L 376.99809 266.694993 
L 383.264785 267.218642 
L 389.531479 260.747834 
L 395.798173 268.490361 
L 402.064868 279.973239 
L 408.331563 278.327485 
L 414.598257 275.709239 
L 420.864951 268.714782 
L 427.131646 257.867764 
L 433.398341 262.318782 
L 439.665035 263.702712 
L 445.931729 263.179063 
L 452.198424 261.271484 
L 458.465119 267.031624 
L 464.731813 269.462852 
L 470.998507 267.405659 
L 477.265202 265.872115 
L 483.531897 268.041519 
L 489.798591 260.411203 
L 496.065285 261.495905 
L 502.33198 264.039343 
L 508.598675 267.480466 
L 514.865369 274.998572 
L 521.132063 275.634432 
L 527.398758 267.293449 
L 533.665453 267.293449 
L 539.932147 274.624537 
L 546.198841 278.103064 
L 552.465536 270.023905 
L 558.732231 269.949098 
L 564.998925 273.427625 
L 577.532314 277.31759 
L 583.799009 285.396748 
L 590.065703 284.798292 
L 596.332397 279.823625 
L 602.599092 273.05359 
L 608.865787 268.452958 
L 615.132481 257.680747 
L 621.399175 250.7985 
L 627.66587 252.967904 
L 633.932565 253.379343 
L 640.199259 257.007483 
L 646.465953 267.443063 
L 652.732648 264.675203 
L 658.999343 262.056957 
L 665.266037 267.667484 
L 671.532731 264.11415 
L 677.799426 266.096536 
L 684.066121 269.53766 
L 690.332815 261.159273 
L 696.599509 266.994221 
L 702.866204 270.023905 
L 709.132899 269.163624 
L 715.399593 261.832536 
L 721.666287 262.543203 
L 727.932982 266.507975 
L 734.199677 269.126221 
L 740.466371 268.191133 
L 746.733065 269.836888 
L 752.99976 274.474923 
L 757 280.420024 
L 757 280.420024 
" clip-path="url(#p453731677a)" style="fill: none; stroke: #2ca02c; stroke-width: 2; stroke-linecap: square"/>
   </g>
   <g id="patch_3">
    <path d="M 63.663365 354.368823 
L 63.663365 3.00024 
" style="fill: none; stroke: #000000; stroke-width: 0.8; stroke-linejoin: miter; stroke-linecap: square"/>
   </g>
   <g id="patch_4">
    <path d="M 752.99976 354.368823 
L 752.99976 3.00024 
" style="fill: none; stroke: #000000; stroke-width: 0.8; stroke-linejoin: miter; stroke-linecap: square"/>
   </g>
   <g id="patch_5">
    <path d="M 63.663365 354.368823 
L 752.99976 354.368823 
" style="fill: none; stroke: #000000; stroke-width: 0.8; stroke-linejoin: miter; stroke-linecap: square"/>
   </g>
   <g id="patch_6">
    <path d="M 63.663365 3.00024 
L 752.99976 3.00024 
" style="fill: none; stroke: #000000; stroke-width: 0.8; stroke-linejoin: miter; stroke-linecap: square"/>
   </g>
   <g id="legend_1">
    <g id="patch_7">
     <path d="M 204.781563 58.746585 
L 611.881562 58.746585 
Q 614.881562 58.746585 614.881562 55.746585 
L 614.881562 35.984085 
Q 614.881562 32.984085 611.881562 32.984085 
L 204.781563 32.984085 
Q 201.781563 32.984085 201.781563 35.984085 
L 201.781563 55.746585 
Q 201.781563 58.746585 204.781563 58.746585 
z
" style="fill: #ffffff; opacity: 0.9; stroke: #cccccc; stroke-linejoin: miter"/>
    </g>
    <g id="line2d_30">
     <path d="M 207.781563 44.515335 
L 222.781563 44.515335 
L 237.781563 44.515335 
" style="fill: none; stroke: #1f77b4; stroke-width: 2; stroke-linecap: square"/>
    </g>
    <g id="text_16">
     <!-- 16 Experts -->
     <g transform="translate(249.781563 49.765335) scale(0.15 -0.15)">
      <defs>
       <path id="ArialMT-72" d="M 416 0 
L 416 3319 
L 922 3319 
L 922 2816 
Q 1116 3169 1280 3281 
Q 1444 3394 1641 3394 
Q 1925 3394 2219 3213 
L 2025 2691 
Q 1819 2813 1613 2813 
Q 1428 2813 1281 2702 
Q 1134 2591 1072 2394 
Q 978 2094 978 1738 
L 978 0 
L 416 0 
z
" transform="scale(0.015625)"/>
      </defs>
      <use xlink:href="#ArialMT-31"/>
      <use xlink:href="#ArialMT-36" x="55.615234"/>
      <use xlink:href="#ArialMT-20" x="111.230469"/>
      <use xlink:href="#ArialMT-45" x="139.013672"/>
      <use xlink:href="#ArialMT-78" x="205.712891"/>
      <use xlink:href="#ArialMT-70" x="255.712891"/>
      <use xlink:href="#ArialMT-65" x="311.328125"/>
      <use xlink:href="#ArialMT-72" x="366.943359"/>
      <use xlink:href="#ArialMT-74" x="400.244141"/>
      <use xlink:href="#ArialMT-73" x="428.027344"/>
     </g>
    </g>
    <g id="line2d_31">
     <path d="M 351.481562 44.515335 
L 366.481562 44.515335 
L 381.481562 44.515335 
" style="fill: none; stroke: #ff7f0e; stroke-width: 2; stroke-linecap: square"/>
    </g>
    <g id="text_17">
     <!-- 32 Experts -->
     <g transform="translate(393.481562 49.765335) scale(0.15 -0.15)">
      <use xlink:href="#ArialMT-33"/>
      <use xlink:href="#ArialMT-32" x="55.615234"/>
      <use xlink:href="#ArialMT-20" x="111.230469"/>
      <use xlink:href="#ArialMT-45" x="139.013672"/>
      <use xlink:href="#ArialMT-78" x="205.712891"/>
      <use xlink:href="#ArialMT-70" x="255.712891"/>
      <use xlink:href="#ArialMT-65" x="311.328125"/>
      <use xlink:href="#ArialMT-72" x="366.943359"/>
      <use xlink:href="#ArialMT-74" x="400.244141"/>
      <use xlink:href="#ArialMT-73" x="428.027344"/>
     </g>
    </g>
    <g id="line2d_32">
     <path d="M 495.181563 44.515335 
L 510.181563 44.515335 
L 525.181563 44.515335 
" style="fill: none; stroke: #2ca02c; stroke-width: 2; stroke-linecap: square"/>
    </g>
    <g id="text_18">
     <!-- 64 Experts -->
     <g transform="translate(537.181563 49.765335) scale(0.15 -0.15)">
      <use xlink:href="#ArialMT-36"/>
      <use xlink:href="#ArialMT-34" x="55.615234"/>
      <use xlink:href="#ArialMT-20" x="111.230469"/>
      <use xlink:href="#ArialMT-45" x="139.013672"/>
      <use xlink:href="#ArialMT-78" x="205.712891"/>
      <use xlink:href="#ArialMT-70" x="255.712891"/>
      <use xlink:href="#ArialMT-65" x="311.328125"/>
      <use xlink:href="#ArialMT-72" x="366.943359"/>
      <use xlink:href="#ArialMT-74" x="400.244141"/>
      <use xlink:href="#ArialMT-73" x="428.027344"/>
     </g>
    </g>
   </g>
  </g>
 </g>
 <defs>
  <clipPath id="p453731677a">
   <rect x="63.663365" y="3.00024" width="689.336395" height="351.368583"/>
  </clipPath>
 </defs>
</svg>
